<?xml version="1.0" standalone="no"?>
<!DOCTYPE svg PUBLIC "-//W3C//DTD SVG 1.1//EN" "http://www.w3.org/Graphics/SVG/1.1/DTD/svg11.dtd" >
<svg xmlns="http://www.w3.org/2000/svg" xmlns:xlink="http://www.w3.org/1999/xlink" version="1.1">
<metadata>
Created by FontForge 20190801 at Tue Dec  6 15:33:59 2022
 By root
copyright missing
</metadata>
<defs>
<font id="MilkandClay-Regular" horiz-adv-x="894" >
  <font-face 
    font-family="Milk and Clay"
    font-weight="400"
    font-stretch="normal"
    units-per-em="1000"
    panose-1="0 0 5 0 0 0 0 0 0 0"
    ascent="800"
    descent="-200"
    cap-height="702"
    bbox="-628 -229.642 1089.84 959"
    underline-thickness="50"
    underline-position="-100"
    unicode-range="U+000D-1EF3"
  />
<missing-glyph horiz-adv-x="527" 
d="M50 700h427v-700h-427v700zM78 680l185 -309l186 309h-371zM276 350l181 -303v605zM251 350l-180 300v-601zM264 329l-185 -308h370z" />
    <glyph glyph-name=".notdef" horiz-adv-x="527" 
d="M50 700h427v-700h-427v700zM78 680l185 -309l186 309h-371zM276 350l181 -303v605zM251 350l-180 300v-601zM264 329l-185 -308h370z" />
    <glyph glyph-name="A" unicode="A" horiz-adv-x="895" 
d="M781 63c4 -17 -4 -30 -21 -33c-21 -4 -41 -11 -61 -9c-38 -3 -64 15 -83 43c-9 13 -18 27 -23 43c-11 37 -37 50 -72 50c-58 1 -116 1 -174 1c-30 -1 -51 -16 -62 -44c-7 -18 -13 -38 -21 -56c-21 -44 -102 -61 -140 -31c-12 10 -13 23 -11 37c2 20 10 39 19 57
c23 48 44 98 61 149c18 52 42 101 69 149c40 70 72 144 102 219c1 5 3 10 5 15c20 56 43 69 101 59c17 -3 29 -13 36 -28c52 -108 110 -212 143 -328c11 -37 31 -72 50 -105c31 -51 51 -107 74 -161c4 -8 7 -18 8 -27zM512 278c22 2 33 16 26 36c-23 57 -43 116 -76 170
c-12 21 -23 20 -32 -2c-24 -54 -48 -108 -71 -162c-10 -23 -6 -31 20 -36c25 -4 51 -5 65 -6c30 0 49 -1 68 0z" />
    <glyph glyph-name="A" unicode="a" horiz-adv-x="895" 
d="M781 63c4 -17 -4 -30 -21 -33c-21 -4 -41 -11 -61 -9c-38 -3 -64 15 -83 43c-9 13 -18 27 -23 43c-11 37 -37 50 -72 50c-58 1 -116 1 -174 1c-30 -1 -51 -16 -62 -44c-7 -18 -13 -38 -21 -56c-21 -44 -102 -61 -140 -31c-12 10 -13 23 -11 37c2 20 10 39 19 57
c23 48 44 98 61 149c18 52 42 101 69 149c40 70 72 144 102 219c1 5 3 10 5 15c20 56 43 69 101 59c17 -3 29 -13 36 -28c52 -108 110 -212 143 -328c11 -37 31 -72 50 -105c31 -51 51 -107 74 -161c4 -8 7 -18 8 -27zM512 278c22 2 33 16 26 36c-23 57 -43 116 -76 170
c-12 21 -23 20 -32 -2c-24 -54 -48 -108 -71 -162c-10 -23 -6 -31 20 -36c25 -4 51 -5 65 -6c30 0 49 -1 68 0z" />
    <glyph glyph-name="Aacute" unicode="&#xc1;" horiz-adv-x="895" 
d="M435 785c-16 -14 -28 -12 -45 7c-15 16 -15 27 -1 42c14 14 27 28 41 41h1c13 14 27 28 41 41c16 15 23 14 39 1c20 -19 23 -28 11 -46c-4 -5 -7 -9 -12 -13c-24 -25 -50 -49 -75 -73zM781 63c4 -17 -4 -30 -21 -33c-21 -4 -41 -11 -61 -9c-38 -3 -64 15 -83 43
c-9 13 -18 27 -23 43c-11 37 -37 50 -72 50c-58 1 -116 1 -174 1c-30 -1 -51 -16 -62 -44c-7 -18 -13 -38 -21 -56c-21 -44 -102 -61 -140 -31c-12 10 -13 23 -11 37c2 20 10 39 19 57c23 48 44 98 61 149c18 52 42 101 69 149c40 70 72 144 102 219c1 5 3 10 5 15
c20 56 43 69 101 59c17 -3 29 -13 36 -28c52 -108 110 -212 143 -328c11 -37 31 -72 50 -105c31 -51 51 -107 74 -161c4 -8 7 -18 8 -27zM512 278c22 2 33 16 26 36c-23 57 -43 116 -76 170c-12 21 -23 20 -32 -2c-24 -54 -48 -108 -71 -162c-10 -23 -6 -31 20 -36
c25 -4 51 -5 65 -6c30 0 49 -1 68 0z" />
    <glyph glyph-name="Acircumflex" unicode="&#xc2;" horiz-adv-x="895" 
d="M371 795c-5 3 -7 7 -4 13c1 3 3 7 5 9c18 29 37 57 56 84c2 3 5 5 6 8c8 7 15 7 21 0c4 -4 8 -9 10 -13c15 -28 36 -50 53 -76c4 -6 11 -11 6 -19c-4 -8 -23 -7 -31 -7c-10 0 -16 6 -21 14c-9 12 -20 37 -26 35s-7 -6 -12 -12l-17 -26c-8 -11 -34 -15 -46 -10zM781 63
c4 -17 -4 -30 -21 -33c-21 -4 -41 -11 -61 -9c-38 -3 -64 15 -83 43c-9 13 -18 27 -23 43c-11 37 -37 50 -72 50c-58 1 -116 1 -174 1c-30 -1 -51 -16 -62 -44c-7 -18 -13 -38 -21 -56c-21 -44 -102 -61 -140 -31c-12 10 -13 23 -11 37c2 20 10 39 19 57c23 48 44 98 61 149
c18 52 42 101 69 149c40 70 72 144 102 219c1 5 3 10 5 15c20 56 43 69 101 59c17 -3 29 -13 36 -28c52 -108 110 -212 143 -328c11 -37 31 -72 50 -105c31 -51 51 -107 74 -161c4 -8 7 -18 8 -27zM512 278c22 2 33 16 26 36c-23 57 -43 116 -76 170c-12 21 -23 20 -32 -2
c-24 -54 -48 -108 -71 -162c-10 -23 -6 -31 20 -36c25 -4 51 -5 65 -6c30 0 49 -1 68 0z" />
    <glyph glyph-name="Adieresis" unicode="&#xc4;" horiz-adv-x="895" 
d="M547 799c-35 0 -59 24 -60 59c-1 29 24 58 51 55c41 -3 64 -20 65 -59c0 -35 -21 -55 -56 -55zM324 795c-32 0 -58 27 -58 59c1 34 27 60 58 59c33 0 63 -30 63 -59c-1 -31 -32 -59 -63 -59zM781 63c4 -17 -4 -30 -21 -33c-21 -4 -41 -11 -61 -9c-38 -3 -64 15 -83 43
c-9 13 -18 27 -23 43c-11 37 -37 50 -72 50c-58 1 -116 1 -174 1c-30 -1 -51 -16 -62 -44c-7 -18 -13 -38 -21 -56c-21 -44 -102 -61 -140 -31c-12 10 -13 23 -11 37c2 20 10 39 19 57c23 48 44 98 61 149c18 52 42 101 69 149c40 70 72 144 102 219c1 5 3 10 5 15
c20 56 43 69 101 59c17 -3 29 -13 36 -28c52 -108 110 -212 143 -328c11 -37 31 -72 50 -105c31 -51 51 -107 74 -161c4 -8 7 -18 8 -27zM512 278c22 2 33 16 26 36c-23 57 -43 116 -76 170c-12 21 -23 20 -32 -2c-24 -54 -48 -108 -71 -162c-10 -23 -6 -31 20 -36
c25 -4 51 -5 65 -6c30 0 49 -1 68 0z" />
    <glyph glyph-name="Agrave" unicode="&#xc0;" horiz-adv-x="895" 
d="M465 795c-25 24 -49 50 -73 75c-14 16 -12 28 7 45c16 15 27 15 42 1c14 -14 28 -27 41 -41v-1c14 -13 28 -27 41 -41c15 -16 14 -23 1 -39c-19 -20 -28 -23 -46 -11c-5 4 -9 7 -13 12zM781 63c4 -17 -4 -30 -21 -33c-21 -4 -41 -11 -61 -9c-38 -3 -64 15 -83 43
c-9 13 -18 27 -23 43c-11 37 -37 50 -72 50c-58 1 -116 1 -174 1c-30 -1 -51 -16 -62 -44c-7 -18 -13 -38 -21 -56c-21 -44 -102 -61 -140 -31c-12 10 -13 23 -11 37c2 20 10 39 19 57c23 48 44 98 61 149c18 52 42 101 69 149c40 70 72 144 102 219c1 5 3 10 5 15
c20 56 43 69 101 59c17 -3 29 -13 36 -28c52 -108 110 -212 143 -328c11 -37 31 -72 50 -105c31 -51 51 -107 74 -161c4 -8 7 -18 8 -27zM512 278c22 2 33 16 26 36c-23 57 -43 116 -76 170c-12 21 -23 20 -32 -2c-24 -54 -48 -108 -71 -162c-10 -23 -6 -31 20 -36
c25 -4 51 -5 65 -6c30 0 49 -1 68 0z" />
    <glyph glyph-name="Aring" unicode="&#xc5;" horiz-adv-x="895" 
d="M447 787c-41 0 -70 29 -71 71c-2 34 28 69 61 65c49 -3 76 -24 78 -70c0 -42 -26 -66 -68 -66zM426 870c-7 -8 -6 -22 2 -29c11 -10 23 -11 34 0c9 9 8 20 0 30c-12 10 -23 9 -36 -1zM781 63c4 -17 -4 -30 -21 -33c-21 -4 -41 -11 -61 -9c-38 -3 -64 15 -83 43
c-9 13 -18 27 -23 43c-11 37 -37 50 -72 50c-58 1 -116 1 -174 1c-30 -1 -51 -16 -62 -44c-7 -18 -13 -38 -21 -56c-21 -44 -102 -61 -140 -31c-12 10 -13 23 -11 37c2 20 10 39 19 57c23 48 44 98 61 149c18 52 42 101 69 149c40 70 72 144 102 219c1 5 3 10 5 15
c20 56 43 69 101 59c17 -3 29 -13 36 -28c52 -108 110 -212 143 -328c11 -37 31 -72 50 -105c31 -51 51 -107 74 -161c4 -8 7 -18 8 -27zM512 278c22 2 33 16 26 36c-23 57 -43 116 -76 170c-12 21 -23 20 -32 -2c-24 -54 -48 -108 -71 -162c-10 -23 -6 -31 20 -36
c25 -4 51 -5 65 -6c30 0 49 -1 68 0z" />
    <glyph glyph-name="Atilde" unicode="&#xc3;" horiz-adv-x="895" 
d="M347 820c-24 -29 -53 -14 -66 16c-3 6 -3 11 1 15c21 29 44 54 80 65c7 2 14 2 17 2c24 0 42 -5 58 -17c13 -9 26 -18 39 -24c24 -12 41 -8 59 13c22 24 45 21 59 -9c6 -11 2 -20 -6 -27c-16 -17 -33 -34 -55 -45c-31 -17 -63 -16 -93 4c-12 7 -22 14 -32 21
c-20 13 -38 12 -55 -6c-2 -2 -4 -5 -6 -8zM781 63c4 -17 -4 -30 -21 -33c-21 -4 -41 -11 -61 -9c-38 -3 -64 15 -83 43c-9 13 -18 27 -23 43c-11 37 -37 50 -72 50c-58 1 -116 1 -174 1c-30 -1 -51 -16 -62 -44c-7 -18 -13 -38 -21 -56c-21 -44 -102 -61 -140 -31
c-12 10 -13 23 -11 37c2 20 10 39 19 57c23 48 44 98 61 149c18 52 42 101 69 149c40 70 72 144 102 219c1 5 3 10 5 15c20 56 43 69 101 59c17 -3 29 -13 36 -28c52 -108 110 -212 143 -328c11 -37 31 -72 50 -105c31 -51 51 -107 74 -161c4 -8 7 -18 8 -27zM512 278
c22 2 33 16 26 36c-23 57 -43 116 -76 170c-12 21 -23 20 -32 -2c-24 -54 -48 -108 -71 -162c-10 -23 -6 -31 20 -36c25 -4 51 -5 65 -6c30 0 49 -1 68 0z" />
    <glyph glyph-name="B" unicode="B" horiz-adv-x="713" 
d="M550 347c79 -73 60 -222 -17 -276c-33 -22 -66 -42 -107 -44c-88 -5 -177 -6 -265 1c-39 3 -50 18 -45 55c7 66 4 132 -2 197c-5 51 0 102 2 153c4 75 2 150 2 226v20c2 33 12 42 45 42c69 -1 137 1 206 -5c33 -3 66 -6 98 -18c49 -17 78 -51 100 -98
c35 -75 16 -135 -38 -190c-5 -5 -10 -9 -14 -14c-5 -5 -12 -8 -13 -16c15 -11 34 -19 48 -33zM271 614c-20 2 -31 -8 -31 -28c0 -40 1 -81 10 -121c4 -17 13 -29 32 -31c37 -5 73 -7 110 0c21 5 36 17 43 38c9 25 10 49 5 74c-7 35 -27 57 -64 62c-25 3 -95 6 -105 6z
M460 176c26 57 -21 139 -83 145c-39 4 -78 -4 -116 -6c-21 -2 -31 -15 -30 -35c0 -32 -1 -65 3 -98c5 -39 23 -52 63 -54c15 0 77 2 93 2c33 0 56 18 70 46z" />
    <glyph glyph-name="B" unicode="b" horiz-adv-x="713" 
d="M550 347c79 -73 60 -222 -17 -276c-33 -22 -66 -42 -107 -44c-88 -5 -177 -6 -265 1c-39 3 -50 18 -45 55c7 66 4 132 -2 197c-5 51 0 102 2 153c4 75 2 150 2 226v20c2 33 12 42 45 42c69 -1 137 1 206 -5c33 -3 66 -6 98 -18c49 -17 78 -51 100 -98
c35 -75 16 -135 -38 -190c-5 -5 -10 -9 -14 -14c-5 -5 -12 -8 -13 -16c15 -11 34 -19 48 -33zM271 614c-20 2 -31 -8 -31 -28c0 -40 1 -81 10 -121c4 -17 13 -29 32 -31c37 -5 73 -7 110 0c21 5 36 17 43 38c9 25 10 49 5 74c-7 35 -27 57 -64 62c-25 3 -95 6 -105 6z
M460 176c26 57 -21 139 -83 145c-39 4 -78 -4 -116 -6c-21 -2 -31 -15 -30 -35c0 -32 -1 -65 3 -98c5 -39 23 -52 63 -54c15 0 77 2 93 2c33 0 56 18 70 46z" />
    <glyph glyph-name="C" unicode="C" horiz-adv-x="834" 
d="M684 186c51 -43 51 -56 -2 -97c-62 -47 -134 -68 -211 -69c-133 0 -237 55 -306 169c-90 149 -68 346 87 455c125 87 257 104 396 35c20 -10 39 -23 55 -40c7 -8 15 -17 15 -28c2 -33 -27 -46 -46 -66c-12 -14 -29 -12 -44 -3c-21 11 -42 24 -63 35
c-75 41 -148 28 -213 -18c-23 -16 -42 -36 -57 -58c-45 -66 -48 -147 -28 -207c8 -25 19 -44 27 -56c29 -43 64 -65 72 -69c19 -11 36 -17 43 -19c12 -4 52 -15 99 -5c36 8 68 26 99 46c38 24 44 23 77 -5z" />
    <glyph glyph-name="C" unicode="c" horiz-adv-x="834" 
d="M684 186c51 -43 51 -56 -2 -97c-62 -47 -134 -68 -211 -69c-133 0 -237 55 -306 169c-90 149 -68 346 87 455c125 87 257 104 396 35c20 -10 39 -23 55 -40c7 -8 15 -17 15 -28c2 -33 -27 -46 -46 -66c-12 -14 -29 -12 -44 -3c-21 11 -42 24 -63 35
c-75 41 -148 28 -213 -18c-23 -16 -42 -36 -57 -58c-45 -66 -48 -147 -28 -207c8 -25 19 -44 27 -56c29 -43 64 -65 72 -69c19 -11 36 -17 43 -19c12 -4 52 -15 99 -5c36 8 68 26 99 46c38 24 44 23 77 -5z" />
    <glyph glyph-name="D" unicode="D" horiz-adv-x="810" 
d="M654 538c41 -77 54 -158 35 -242c-32 -146 -131 -231 -273 -264c-85 -20 -174 -15 -261 -6c-38 4 -40 8 -41 45c-1 61 0 121 0 182c-1 39 -1 78 -1 117c2 95 0 190 -1 286c0 48 8 57 57 54c58 -5 115 -3 173 -3c55 1 108 -10 158 -28c69 -26 119 -75 154 -141zM562 291
c10 42 12 84 4 127c-15 73 -55 125 -127 149c-44 15 -91 20 -138 26c-18 2 -34 -3 -46 -12c-7 -5 -17 -17 -23 -60c-6 -37 -5 -65 -5 -69c3 -57 1 -112 -1 -144c0 0 -5 -45 5 -129c2 -19 11 -28 29 -32c24 -6 48 -2 72 -4c64 -5 119 19 169 56c31 23 51 53 61 92z" />
    <glyph glyph-name="D" unicode="d" horiz-adv-x="810" 
d="M654 538c41 -77 54 -158 35 -242c-32 -146 -131 -231 -273 -264c-85 -20 -174 -15 -261 -6c-38 4 -40 8 -41 45c-1 61 0 121 0 182c-1 39 -1 78 -1 117c2 95 0 190 -1 286c0 48 8 57 57 54c58 -5 115 -3 173 -3c55 1 108 -10 158 -28c69 -26 119 -75 154 -141zM562 291
c10 42 12 84 4 127c-15 73 -55 125 -127 149c-44 15 -91 20 -138 26c-18 2 -34 -3 -46 -12c-7 -5 -17 -17 -23 -60c-6 -37 -5 -65 -5 -69c3 -57 1 -112 -1 -144c0 0 -5 -45 5 -129c2 -19 11 -28 29 -32c24 -6 48 -2 72 -4c64 -5 119 19 169 56c31 23 51 53 61 92z" />
    <glyph glyph-name="E" unicode="E" horiz-adv-x="673" 
d="M498 141c55 -1 78 -42 51 -91c-9 -15 -23 -20 -41 -22c-56 -5 -113 2 -169 1h-158c-17 0 -35 1 -47 16c-9 10 -12 21 -10 34c6 43 2 86 -1 128c-4 57 -1 113 -1 170c0 90 0 180 -9 270c-5 45 7 57 53 60c57 4 113 7 169 2c46 -4 92 2 137 4c11 1 22 1 33 2
c8 0 16 -1 23 -6c28 -18 21 -47 22 -73c1 -23 -16 -32 -36 -36c-14 -4 -29 -6 -44 -4c-56 5 -113 1 -169 1c-55 0 -62 -8 -59 -61c1 -23 2 -46 0 -68c-2 -28 3 -34 30 -35c35 -1 70 0 105 0c27 0 54 0 81 -1c34 -1 45 -13 49 -46c1 -6 2 -13 1 -20c0 -29 -6 -37 -36 -42
c-17 -3 -35 -4 -52 -4c-45 -1 -89 -1 -133 -1c-42 0 -54 -12 -51 -53c1 -26 3 -51 5 -76c2 -17 10 -32 24 -41c11 -6 22 -7 27 -7c142 0 128 -6 190 -1h16z" />
    <glyph glyph-name="E" unicode="e" horiz-adv-x="673" 
d="M498 141c55 -1 78 -42 51 -91c-9 -15 -23 -20 -41 -22c-56 -5 -113 2 -169 1h-158c-17 0 -35 1 -47 16c-9 10 -12 21 -10 34c6 43 2 86 -1 128c-4 57 -1 113 -1 170c0 90 0 180 -9 270c-5 45 7 57 53 60c57 4 113 7 169 2c46 -4 92 2 137 4c11 1 22 1 33 2
c8 0 16 -1 23 -6c28 -18 21 -47 22 -73c1 -23 -16 -32 -36 -36c-14 -4 -29 -6 -44 -4c-56 5 -113 1 -169 1c-55 0 -62 -8 -59 -61c1 -23 2 -46 0 -68c-2 -28 3 -34 30 -35c35 -1 70 0 105 0c27 0 54 0 81 -1c34 -1 45 -13 49 -46c1 -6 2 -13 1 -20c0 -29 -6 -37 -36 -42
c-17 -3 -35 -4 -52 -4c-45 -1 -89 -1 -133 -1c-42 0 -54 -12 -51 -53c1 -26 3 -51 5 -76c2 -17 10 -32 24 -41c11 -6 22 -7 27 -7c142 0 128 -6 190 -1h16z" />
    <glyph glyph-name="Eacute" unicode="&#xc9;" horiz-adv-x="673" 
d="M374 944c20 -19 23 -28 11 -46c-4 -5 -7 -9 -12 -13c-24 -25 -50 -49 -75 -73c-16 -14 -28 -12 -45 7c-15 16 -15 27 -1 42c14 14 27 28 41 41h1c13 14 27 28 41 41c16 15 23 14 39 1zM498 141c55 -1 78 -42 51 -91c-9 -15 -23 -20 -41 -22c-56 -5 -113 2 -169 1h-158
c-17 0 -35 1 -47 16c-9 10 -12 21 -10 34c6 43 2 86 -1 128c-4 57 -1 113 -1 170c0 90 0 180 -9 270c-5 45 7 57 53 60c57 4 113 7 169 2c46 -4 92 2 137 4c11 1 22 1 33 2c8 0 16 -1 23 -6c28 -18 21 -47 22 -73c1 -23 -16 -32 -36 -36c-14 -4 -29 -6 -44 -4
c-56 5 -113 1 -169 1c-55 0 -62 -8 -59 -61c1 -23 2 -46 0 -68c-2 -28 3 -34 30 -35c35 -1 70 0 105 0c27 0 54 0 81 -1c34 -1 45 -13 49 -46c1 -6 2 -13 1 -20c0 -29 -6 -37 -36 -42c-17 -3 -35 -4 -52 -4c-45 -1 -89 -1 -133 -1c-42 0 -54 -12 -51 -53c1 -26 3 -51 5 -76
c2 -17 10 -32 24 -41c11 -6 22 -7 27 -7c142 0 128 -6 190 -1h16z" />
    <glyph glyph-name="Ecircumflex" unicode="&#xca;" horiz-adv-x="673" 
d="M335 870c6 2 17 -23 26 -35c5 -8 11 -14 21 -14c8 0 27 -1 31 7c5 8 -2 13 -6 19c-17 26 -38 48 -53 76c-2 4 -6 9 -10 13c-6 7 -13 7 -21 0c-1 -3 -4 -5 -6 -8c-19 -27 -38 -55 -56 -84c-2 -2 -4 -6 -5 -9c-3 -6 -1 -10 4 -13c12 -5 38 -1 46 10l17 26c5 6 6 10 12 12z
M498 141c55 -1 78 -42 51 -91c-9 -15 -23 -20 -41 -22c-56 -5 -113 2 -169 1h-158c-17 0 -35 1 -47 16c-9 10 -12 21 -10 34c6 43 2 86 -1 128c-4 57 -1 113 -1 170c0 90 0 180 -9 270c-5 45 7 57 53 60c57 4 113 7 169 2c46 -4 92 2 137 4c11 1 22 1 33 2c8 0 16 -1 23 -6
c28 -18 21 -47 22 -73c1 -23 -16 -32 -36 -36c-14 -4 -29 -6 -44 -4c-56 5 -113 1 -169 1c-55 0 -62 -8 -59 -61c1 -23 2 -46 0 -68c-2 -28 3 -34 30 -35c35 -1 70 0 105 0c27 0 54 0 81 -1c34 -1 45 -13 49 -46c1 -6 2 -13 1 -20c0 -29 -6 -37 -36 -42
c-17 -3 -35 -4 -52 -4c-45 -1 -89 -1 -133 -1c-42 0 -54 -12 -51 -53c1 -26 3 -51 5 -76c2 -17 10 -32 24 -41c11 -6 22 -7 27 -7c142 0 128 -6 190 -1h16z" />
    <glyph glyph-name="Edieresis" unicode="&#xcb;" horiz-adv-x="673" 
d="M387 883c-1 29 24 58 51 55c41 -3 64 -20 65 -59c0 -35 -21 -55 -56 -55s-59 24 -60 59zM287 879c-1 -31 -32 -59 -63 -59c-32 0 -58 27 -58 59c1 34 27 60 58 59c33 0 63 -30 63 -59zM498 141c55 -1 78 -42 51 -91c-9 -15 -23 -20 -41 -22c-56 -5 -113 2 -169 1h-158
c-17 0 -35 1 -47 16c-9 10 -12 21 -10 34c6 43 2 86 -1 128c-4 57 -1 113 -1 170c0 90 0 180 -9 270c-5 45 7 57 53 60c57 4 113 7 169 2c46 -4 92 2 137 4c11 1 22 1 33 2c8 0 16 -1 23 -6c28 -18 21 -47 22 -73c1 -23 -16 -32 -36 -36c-14 -4 -29 -6 -44 -4
c-56 5 -113 1 -169 1c-55 0 -62 -8 -59 -61c1 -23 2 -46 0 -68c-2 -28 3 -34 30 -35c35 -1 70 0 105 0c27 0 54 0 81 -1c34 -1 45 -13 49 -46c1 -6 2 -13 1 -20c0 -29 -6 -37 -36 -42c-17 -3 -35 -4 -52 -4c-45 -1 -89 -1 -133 -1c-42 0 -54 -12 -51 -53c1 -26 3 -51 5 -76
c2 -17 10 -32 24 -41c11 -6 22 -7 27 -7c142 0 128 -6 190 -1h16z" />
    <glyph glyph-name="Egrave" unicode="&#xc8;" horiz-adv-x="673" 
d="M418 821c-19 -20 -28 -23 -46 -11c-5 4 -9 7 -13 12c-25 24 -49 50 -73 75c-14 16 -12 28 7 45c16 15 27 15 42 1c14 -14 28 -27 41 -41v-1c14 -13 28 -27 41 -41c15 -16 14 -23 1 -39zM498 141c55 -1 78 -42 51 -91c-9 -15 -23 -20 -41 -22c-56 -5 -113 2 -169 1h-158
c-17 0 -35 1 -47 16c-9 10 -12 21 -10 34c6 43 2 86 -1 128c-4 57 -1 113 -1 170c0 90 0 180 -9 270c-5 45 7 57 53 60c57 4 113 7 169 2c46 -4 92 2 137 4c11 1 22 1 33 2c8 0 16 -1 23 -6c28 -18 21 -47 22 -73c1 -23 -16 -32 -36 -36c-14 -4 -29 -6 -44 -4
c-56 5 -113 1 -169 1c-55 0 -62 -8 -59 -61c1 -23 2 -46 0 -68c-2 -28 3 -34 30 -35c35 -1 70 0 105 0c27 0 54 0 81 -1c34 -1 45 -13 49 -46c1 -6 2 -13 1 -20c0 -29 -6 -37 -36 -42c-17 -3 -35 -4 -52 -4c-45 -1 -89 -1 -133 -1c-42 0 -54 -12 -51 -53c1 -26 3 -51 5 -76
c2 -17 10 -32 24 -41c11 -6 22 -7 27 -7c142 0 128 -6 190 -1h16z" />
    <glyph glyph-name="F" unicode="F" horiz-adv-x="663" 
d="M481 715c54 0 77 -30 67 -83c-4 -17 -14 -26 -29 -31c-19 -6 -40 -6 -60 -7c-51 -3 -102 8 -153 8c-78 1 -81 -2 -80 -80c0 -23 0 -46 3 -68c5 -46 13 -54 58 -54c50 0 99 2 149 4c5 0 11 1 16 1c45 0 69 -39 50 -79c-7 -16 -21 -20 -36 -20c-43 -1 -86 -1 -129 -1
c-23 -1 -46 0 -69 -1c-30 -2 -35 -7 -35 -37c-1 -48 -1 -96 5 -145c2 -18 4 -37 1 -56c-4 -25 -15 -34 -40 -37c-11 -1 -22 -1 -33 0c-33 3 -45 14 -46 48c-5 84 -7 169 -3 254c3 97 -3 196 -5 294v28c0 38 9 57 55 56c18 -1 37 -1 56 -1h48c64 -6 119 -3 173 5
c12 2 25 2 37 2z" />
    <glyph glyph-name="F" unicode="f" horiz-adv-x="663" 
d="M481 715c54 0 77 -30 67 -83c-4 -17 -14 -26 -29 -31c-19 -6 -40 -6 -60 -7c-51 -3 -102 8 -153 8c-78 1 -81 -2 -80 -80c0 -23 0 -46 3 -68c5 -46 13 -54 58 -54c50 0 99 2 149 4c5 0 11 1 16 1c45 0 69 -39 50 -79c-7 -16 -21 -20 -36 -20c-43 -1 -86 -1 -129 -1
c-23 -1 -46 0 -69 -1c-30 -2 -35 -7 -35 -37c-1 -48 -1 -96 5 -145c2 -18 4 -37 1 -56c-4 -25 -15 -34 -40 -37c-11 -1 -22 -1 -33 0c-33 3 -45 14 -46 48c-5 84 -7 169 -3 254c3 97 -3 196 -5 294v28c0 38 9 57 55 56c18 -1 37 -1 56 -1h48c64 -6 119 -3 173 5
c12 2 25 2 37 2z" />
    <glyph glyph-name="G" unicode="G" horiz-adv-x="830" 
d="M715 162c9 -56 -10 -91 -62 -112c-99 -41 -200 -53 -302 -13c-78 30 -141 82 -193 148c-19 25 -27 55 -33 86c-8 51 -20 103 -7 155c45 182 195 291 369 289c31 -1 60 -10 89 -21c35 -15 66 -36 98 -56c31 -19 33 -37 12 -67c-6 -9 -12 -18 -20 -25
c-13 -15 -29 -18 -47 -8c-17 9 -33 19 -49 27c-110 57 -251 14 -311 -94c-37 -66 -23 -176 29 -235c37 -42 80 -74 133 -94c47 -18 92 -15 138 -5c33 8 51 65 31 93c-6 7 -13 10 -21 10c-11 1 -22 1 -32 1c-36 1 -48 12 -53 47c-6 51 11 70 63 68c17 -1 35 -3 55 -4
c20 0 43 1 66 0c31 -2 40 -11 42 -42c1 -16 1 -32 0 -48c-3 -34 -1 -67 5 -100z" />
    <glyph glyph-name="G" unicode="g" horiz-adv-x="830" 
d="M715 162c9 -56 -10 -91 -62 -112c-99 -41 -200 -53 -302 -13c-78 30 -141 82 -193 148c-19 25 -27 55 -33 86c-8 51 -20 103 -7 155c45 182 195 291 369 289c31 -1 60 -10 89 -21c35 -15 66 -36 98 -56c31 -19 33 -37 12 -67c-6 -9 -12 -18 -20 -25
c-13 -15 -29 -18 -47 -8c-17 9 -33 19 -49 27c-110 57 -251 14 -311 -94c-37 -66 -23 -176 29 -235c37 -42 80 -74 133 -94c47 -18 92 -15 138 -5c33 8 51 65 31 93c-6 7 -13 10 -21 10c-11 1 -22 1 -32 1c-36 1 -48 12 -53 47c-6 51 11 70 63 68c17 -1 35 -3 55 -4
c20 0 43 1 66 0c31 -2 40 -11 42 -42c1 -16 1 -32 0 -48c-3 -34 -1 -67 5 -100z" />
    <glyph glyph-name="H" unicode="H" horiz-adv-x="791" 
d="M673 285c3 -66 6 -132 5 -197c0 -22 2 -46 -21 -57c-28 -14 -58 -12 -86 -1c-15 6 -15 21 -15 34c1 61 1 121 1 182c0 142 -9 152 -63 156c-70 6 -140 8 -210 3c-45 -4 -45 -6 -51 -49c-6 -58 -8 -206 0 -263v-4c2 -80 -25 -76 -91 -65c-20 4 -30 28 -25 58
c5 31 4 62 4 92l-9 436v24c0 57 8 66 63 70c35 3 51 -10 53 -45c4 -47 2 -70 -1 -117c0 -18 10 -29 54 -30c38 -1 75 0 108 0c47 -1 88 -2 130 1c24 2 39 14 41 36l2 27c2 28 -3 56 -3 84c-1 31 8 39 38 41c72 4 87 -9 79 -82c-3 -32 -2 -64 -2 -96c0 -80 -4 -159 -1 -238z
" />
    <glyph glyph-name="H" unicode="h" horiz-adv-x="791" 
d="M673 285c3 -66 6 -132 5 -197c0 -22 2 -46 -21 -57c-28 -14 -58 -12 -86 -1c-15 6 -15 21 -15 34c1 61 1 121 1 182c0 142 -9 152 -63 156c-70 6 -140 8 -210 3c-45 -4 -45 -6 -51 -49c-6 -58 -8 -206 0 -263v-4c2 -80 -25 -76 -91 -65c-20 4 -30 28 -25 58
c5 31 4 62 4 92l-9 436v24c0 57 8 66 63 70c35 3 51 -10 53 -45c4 -47 2 -70 -1 -117c0 -18 10 -29 54 -30c38 -1 75 0 108 0c47 -1 88 -2 130 1c24 2 39 14 41 36l2 27c2 28 -3 56 -3 84c-1 31 8 39 38 41c72 4 87 -9 79 -82c-3 -32 -2 -64 -2 -96c0 -80 -4 -159 -1 -238z
" />
    <glyph glyph-name="I" unicode="I" horiz-adv-x="359" 
d="M241 681c5 -15 6 -31 5 -49c-16 -154 1 -310 -9 -466c-2 -35 3 -70 -3 -105c-5 -27 -10 -33 -38 -37h-12c-27 -1 -44 2 -54 12c-13 14 -11 37 -10 50c6 63 0 127 4 190c1 31 1 57 1 108c-1 57 -8 204 -10 242c0 13 -2 27 -3 40c-1 11 3 21 11 29c16 19 89 24 107 7
c6 -5 9 -13 11 -21z" />
    <glyph glyph-name="I" unicode="i" horiz-adv-x="359" 
d="M241 681c5 -15 6 -31 5 -49c-16 -154 1 -310 -9 -466c-2 -35 3 -70 -3 -105c-5 -27 -10 -33 -38 -37h-12c-27 -1 -44 2 -54 12c-13 14 -11 37 -10 50c6 63 0 127 4 190c1 31 1 57 1 108c-1 57 -8 204 -10 242c0 13 -2 27 -3 40c-1 11 3 21 11 29c16 19 89 24 107 7
c6 -5 9 -13 11 -21z" />
    <glyph glyph-name="Iacute" unicode="&#xcd;" horiz-adv-x="359" 
d="M219 949c20 -19 23 -28 11 -46c-4 -5 -7 -9 -12 -13c-24 -25 -50 -49 -75 -73c-16 -14 -28 -12 -45 7c-15 16 -15 27 -1 42c14 14 27 28 41 41h1c13 14 27 28 41 41c16 15 23 14 39 1zM241 681c5 -15 6 -31 5 -49c-16 -154 1 -310 -9 -466c-2 -35 3 -70 -3 -105
c-5 -27 -10 -33 -38 -37h-12c-27 -1 -44 2 -54 12c-13 14 -11 37 -10 50c6 63 0 127 4 190c1 31 1 57 1 108c-1 57 -8 204 -10 242c0 13 -2 27 -3 40c-1 11 3 21 11 29c16 19 89 24 107 7c6 -5 9 -13 11 -21z" />
    <glyph glyph-name="Iacute" unicode="&#xed;" horiz-adv-x="359" 
d="M219 949c20 -19 23 -28 11 -46c-4 -5 -7 -9 -12 -13c-24 -25 -50 -49 -75 -73c-16 -14 -28 -12 -45 7c-15 16 -15 27 -1 42c14 14 27 28 41 41h1c13 14 27 28 41 41c16 15 23 14 39 1zM241 681c5 -15 6 -31 5 -49c-16 -154 1 -310 -9 -466c-2 -35 3 -70 -3 -105
c-5 -27 -10 -33 -38 -37h-12c-27 -1 -44 2 -54 12c-13 14 -11 37 -10 50c6 63 0 127 4 190c1 31 1 57 1 108c-1 57 -8 204 -10 242c0 13 -2 27 -3 40c-1 11 3 21 11 29c16 19 89 24 107 7c6 -5 9 -13 11 -21z" />
    <glyph glyph-name="Icircumflex" unicode="&#xce;" horiz-adv-x="359" 
d="M180 875c6 2 17 -23 26 -35c5 -8 11 -14 21 -14c8 0 27 -1 31 7c5 8 -2 13 -6 19c-17 26 -38 48 -53 76c-2 4 -6 9 -10 13c-6 7 -13 7 -21 0c-1 -3 -4 -5 -6 -8c-19 -27 -38 -55 -56 -84c-2 -2 -4 -6 -5 -9c-3 -6 -1 -10 4 -13c12 -5 38 -1 46 10l17 26c5 6 6 10 12 12z
M241 681c5 -15 6 -31 5 -49c-16 -154 1 -310 -9 -466c-2 -35 3 -70 -3 -105c-5 -27 -10 -33 -38 -37h-12c-27 -1 -44 2 -54 12c-13 14 -11 37 -10 50c6 63 0 127 4 190c1 31 1 57 1 108c-1 57 -8 204 -10 242c0 13 -2 27 -3 40c-1 11 3 21 11 29c16 19 89 24 107 7
c6 -5 9 -13 11 -21z" />
    <glyph glyph-name="Icircumflex" unicode="&#xee;" horiz-adv-x="359" 
d="M180 875c6 2 17 -23 26 -35c5 -8 11 -14 21 -14c8 0 27 -1 31 7c5 8 -2 13 -6 19c-17 26 -38 48 -53 76c-2 4 -6 9 -10 13c-6 7 -13 7 -21 0c-1 -3 -4 -5 -6 -8c-19 -27 -38 -55 -56 -84c-2 -2 -4 -6 -5 -9c-3 -6 -1 -10 4 -13c12 -5 38 -1 46 10l17 26c5 6 6 10 12 12z
M241 681c5 -15 6 -31 5 -49c-16 -154 1 -310 -9 -466c-2 -35 3 -70 -3 -105c-5 -27 -10 -33 -38 -37h-12c-27 -1 -44 2 -54 12c-13 14 -11 37 -10 50c6 63 0 127 4 190c1 31 1 57 1 108c-1 57 -8 204 -10 242c0 13 -2 27 -3 40c-1 11 3 21 11 29c16 19 89 24 107 7
c6 -5 9 -13 11 -21z" />
    <glyph glyph-name="Idieresis" unicode="&#xcf;" horiz-adv-x="359" 
d="M232 888c-1 29 24 58 51 55c41 -3 64 -20 65 -59c0 -35 -21 -55 -56 -55s-59 24 -60 59zM132 884c-1 -31 -32 -59 -63 -59c-32 0 -58 27 -58 59c1 34 27 60 58 59c33 0 63 -30 63 -59zM241 681c5 -15 6 -31 5 -49c-16 -154 1 -310 -9 -466c-2 -35 3 -70 -3 -105
c-5 -27 -10 -33 -38 -37h-12c-27 -1 -44 2 -54 12c-13 14 -11 37 -10 50c6 63 0 127 4 190c1 31 1 57 1 108c-1 57 -8 204 -10 242c0 13 -2 27 -3 40c-1 11 3 21 11 29c16 19 89 24 107 7c6 -5 9 -13 11 -21z" />
    <glyph glyph-name="Idieresis" unicode="&#xef;" horiz-adv-x="359" 
d="M232 888c-1 29 24 58 51 55c41 -3 64 -20 65 -59c0 -35 -21 -55 -56 -55s-59 24 -60 59zM132 884c-1 -31 -32 -59 -63 -59c-32 0 -58 27 -58 59c1 34 27 60 58 59c33 0 63 -30 63 -59zM241 681c5 -15 6 -31 5 -49c-16 -154 1 -310 -9 -466c-2 -35 3 -70 -3 -105
c-5 -27 -10 -33 -38 -37h-12c-27 -1 -44 2 -54 12c-13 14 -11 37 -10 50c6 63 0 127 4 190c1 31 1 57 1 108c-1 57 -8 204 -10 242c0 13 -2 27 -3 40c-1 11 3 21 11 29c16 19 89 24 107 7c6 -5 9 -13 11 -21z" />
    <glyph glyph-name="Igrave" unicode="&#xcc;" horiz-adv-x="359" 
d="M263 826c-19 -20 -28 -23 -46 -11c-5 4 -9 7 -13 12c-25 24 -49 50 -73 75c-14 16 -12 28 7 45c16 15 27 15 42 1c14 -14 28 -27 41 -41v-1c14 -13 28 -27 41 -41c15 -16 14 -23 1 -39zM241 681c5 -15 6 -31 5 -49c-16 -154 1 -310 -9 -466c-2 -35 3 -70 -3 -105
c-5 -27 -10 -33 -38 -37h-12c-27 -1 -44 2 -54 12c-13 14 -11 37 -10 50c6 63 0 127 4 190c1 31 1 57 1 108c-1 57 -8 204 -10 242c0 13 -2 27 -3 40c-1 11 3 21 11 29c16 19 89 24 107 7c6 -5 9 -13 11 -21z" />
    <glyph glyph-name="Igrave" unicode="&#xec;" horiz-adv-x="359" 
d="M263 826c-19 -20 -28 -23 -46 -11c-5 4 -9 7 -13 12c-25 24 -49 50 -73 75c-14 16 -12 28 7 45c16 15 27 15 42 1c14 -14 28 -27 41 -41v-1c14 -13 28 -27 41 -41c15 -16 14 -23 1 -39zM241 681c5 -15 6 -31 5 -49c-16 -154 1 -310 -9 -466c-2 -35 3 -70 -3 -105
c-5 -27 -10 -33 -38 -37h-12c-27 -1 -44 2 -54 12c-13 14 -11 37 -10 50c6 63 0 127 4 190c1 31 1 57 1 108c-1 57 -8 204 -10 242c0 13 -2 27 -3 40c-1 11 3 21 11 29c16 19 89 24 107 7c6 -5 9 -13 11 -21z" />
    <glyph glyph-name="J" unicode="J" horiz-adv-x="587" 
d="M466 579c1 -93 2 -186 1 -279c0 -38 -3 -75 -8 -113c-17 -136 -138 -185 -243 -158c-32 6 -62 20 -88 40c-15 11 -20 30 -13 47c10 20 20 43 45 49c10 0 19 -3 27 -8c9 -5 18 -11 27 -18c49 -34 103 -10 126 42c6 15 9 31 9 47c1 111 1 222 1 332c0 11 -2 21 -4 37
c-14 0 -25 -1 -36 0c-24 1 -32 9 -36 34c0 2 0 3 -1 4c-6 55 7 71 63 74c24 1 48 2 73 2c35 1 49 -11 52 -47c4 -28 5 -56 5 -85z" />
    <glyph glyph-name="J" unicode="j" horiz-adv-x="587" 
d="M466 579c1 -93 2 -186 1 -279c0 -38 -3 -75 -8 -113c-17 -136 -138 -185 -243 -158c-32 6 -62 20 -88 40c-15 11 -20 30 -13 47c10 20 20 43 45 49c10 0 19 -3 27 -8c9 -5 18 -11 27 -18c49 -34 103 -10 126 42c6 15 9 31 9 47c1 111 1 222 1 332c0 11 -2 21 -4 37
c-14 0 -25 -1 -36 0c-24 1 -32 9 -36 34c0 2 0 3 -1 4c-6 55 7 71 63 74c24 1 48 2 73 2c35 1 49 -11 52 -47c4 -28 5 -56 5 -85z" />
    <glyph glyph-name="K" unicode="K" horiz-adv-x="729" 
d="M587 103c15 -16 36 -34 27 -59c-11 -28 -40 -22 -63 -23c-37 -3 -64 10 -86 42c-36 55 -89 96 -131 147c-19 23 -40 44 -60 65c-13 14 -25 28 -49 37c-2 -39 -2 -75 2 -110c4 -45 2 -89 3 -133c0 -27 -10 -36 -36 -40c-4 -1 -8 -1 -12 -1c-56 -4 -63 6 -67 62
c-10 149 9 298 4 447c-2 38 -3 75 -3 113c-1 41 9 50 49 49c66 -1 68 -4 67 -69c0 -48 -2 -96 -3 -145c0 -3 -2 -14 0 -27c2 -12 5 -21 8 -27c92 92 141 145 166 175c22 28 39 39 69 68c31 31 67 29 105 20c27 -6 32 -21 16 -45c-17 -24 -38 -45 -59 -66
c-54 -52 -114 -98 -161 -157c-34 -42 -35 -42 -4 -87c21 -29 48 -54 75 -78c30 -25 58 -52 79 -86c17 -28 42 -48 64 -72z" />
    <glyph glyph-name="K" unicode="k" horiz-adv-x="729" 
d="M587 103c15 -16 36 -34 27 -59c-11 -28 -40 -22 -63 -23c-37 -3 -64 10 -86 42c-36 55 -89 96 -131 147c-19 23 -40 44 -60 65c-13 14 -25 28 -49 37c-2 -39 -2 -75 2 -110c4 -45 2 -89 3 -133c0 -27 -10 -36 -36 -40c-4 -1 -8 -1 -12 -1c-56 -4 -63 6 -67 62
c-10 149 9 298 4 447c-2 38 -3 75 -3 113c-1 41 9 50 49 49c66 -1 68 -4 67 -69c0 -48 -2 -96 -3 -145c0 -3 -2 -14 0 -27c2 -12 5 -21 8 -27c92 92 141 145 166 175c22 28 39 39 69 68c31 31 67 29 105 20c27 -6 32 -21 16 -45c-17 -24 -38 -45 -59 -66
c-54 -52 -114 -98 -161 -157c-34 -42 -35 -42 -4 -87c21 -29 48 -54 75 -78c30 -25 58 -52 79 -86c17 -28 42 -48 64 -72z" />
    <glyph glyph-name="L" unicode="L" horiz-adv-x="627" 
d="M514 97c0 -13 1 -25 0 -37c-1 -18 -11 -29 -30 -31c-28 -3 -56 -6 -85 -5c-75 3 -150 6 -225 8c-40 1 -45 4 -46 43c-1 75 0 150 0 226c0 95 1 190 -8 286c-2 20 -5 39 -7 59c-4 39 9 53 46 52c7 0 14 -1 20 0c73 2 62 -15 67 -64c6 -73 3 -147 -3 -221
c-3 -42 -4 -83 0 -125c3 -32 3 -64 3 -96c0 -45 12 -60 57 -57c46 2 91 -2 137 -2c15 0 29 0 44 -4c18 -4 29 -14 30 -32z" />
    <glyph glyph-name="L" unicode="l" horiz-adv-x="627" 
d="M514 97c0 -13 1 -25 0 -37c-1 -18 -11 -29 -30 -31c-28 -3 -56 -6 -85 -5c-75 3 -150 6 -225 8c-40 1 -45 4 -46 43c-1 75 0 150 0 226c0 95 1 190 -8 286c-2 20 -5 39 -7 59c-4 39 9 53 46 52c7 0 14 -1 20 0c73 2 62 -15 67 -64c6 -73 3 -147 -3 -221
c-3 -42 -4 -83 0 -125c3 -32 3 -64 3 -96c0 -45 12 -60 57 -57c46 2 91 -2 137 -2c15 0 29 0 44 -4c18 -4 29 -14 30 -32z" />
    <glyph glyph-name="M" unicode="M" horiz-adv-x="970" 
d="M851 119c0 0 6 -29 6 -89c1 -28 -7 -35 -35 -38c-9 -1 -18 -2 -28 -2c-39 -1 -53 10 -58 50c-14 102 -43 202 -56 304c-1 4 -3 7 -6 14c-19 -15 -26 -35 -34 -54c-30 -82 -59 -164 -89 -246c-5 -13 -11 -25 -15 -37c-8 -22 -23 -31 -46 -32c-23 0 -35 14 -43 31
c-14 31 -28 62 -41 92c-32 74 -63 148 -95 222c-2 4 -5 6 -10 11c-9 -59 -17 -116 -26 -172c-7 -41 -16 -82 -23 -123c-5 -30 -22 -45 -50 -49c-3 -1 -6 -1 -8 -1c-73 -10 -91 10 -78 82c16 90 26 181 47 269c22 95 31 191 49 286c7 42 26 53 67 50c24 -2 36 -18 43 -37
c15 -41 29 -81 42 -122c25 -82 70 -154 105 -231c2 -6 7 -11 11 -16c11 -12 19 -7 25 4c13 21 23 43 32 65c37 91 73 182 109 273c4 10 8 20 13 30c16 32 43 43 77 34c15 -4 22 -15 24 -29c6 -30 11 -61 15 -91c4 -28 4 -16 26 -143c18 -111 12 -100 26 -174
c9 -44 13 -88 24 -131z" />
    <glyph glyph-name="M" unicode="m" horiz-adv-x="970" 
d="M851 119c0 0 6 -29 6 -89c1 -28 -7 -35 -35 -38c-9 -1 -18 -2 -28 -2c-39 -1 -53 10 -58 50c-14 102 -43 202 -56 304c-1 4 -3 7 -6 14c-19 -15 -26 -35 -34 -54c-30 -82 -59 -164 -89 -246c-5 -13 -11 -25 -15 -37c-8 -22 -23 -31 -46 -32c-23 0 -35 14 -43 31
c-14 31 -28 62 -41 92c-32 74 -63 148 -95 222c-2 4 -5 6 -10 11c-9 -59 -17 -116 -26 -172c-7 -41 -16 -82 -23 -123c-5 -30 -22 -45 -50 -49c-3 -1 -6 -1 -8 -1c-73 -10 -91 10 -78 82c16 90 26 181 47 269c22 95 31 191 49 286c7 42 26 53 67 50c24 -2 36 -18 43 -37
c15 -41 29 -81 42 -122c25 -82 70 -154 105 -231c2 -6 7 -11 11 -16c11 -12 19 -7 25 4c13 21 23 43 32 65c37 91 73 182 109 273c4 10 8 20 13 30c16 32 43 43 77 34c15 -4 22 -15 24 -29c6 -30 11 -61 15 -91c4 -28 4 -16 26 -143c18 -111 12 -100 26 -174
c9 -44 13 -88 24 -131z" />
    <glyph glyph-name="N" unicode="N" horiz-adv-x="820" 
d="M704 338c-3 -66 7 -142 2 -219c-2 -25 -4 -51 -8 -76c-6 -49 -38 -64 -79 -37c-13 7 -23 18 -33 30c-64 76 -127 153 -191 228c-37 43 -76 85 -107 132c-3 4 -7 8 -11 11c-8 5 -16 12 -26 7c-8 -5 -6 -15 -6 -22c0 -94 1 -189 2 -283c0 -21 -1 -43 -3 -64
c-3 -26 -13 -35 -39 -37c-12 -1 -24 -1 -36 -2c-35 0 -51 12 -51 47c1 77 -8 153 -6 230c3 113 3 225 5 338c0 21 -8 46 19 56c29 10 57 6 78 -17c33 -33 65 -68 96 -103c40 -43 79 -88 114 -136c28 -39 60 -75 95 -109c7 -7 13 -14 21 -19c14 -9 26 -3 27 15
c1 35 0 70 0 104c0 73 -1 146 0 218c0 42 6 47 46 48c4 1 8 1 12 1c68 -2 76 -3 79 -80c3 -83 0 -167 0 -261z" />
    <glyph glyph-name="N" unicode="n" horiz-adv-x="820" 
d="M704 338c-3 -66 7 -142 2 -219c-2 -25 -4 -51 -8 -76c-6 -49 -38 -64 -79 -37c-13 7 -23 18 -33 30c-64 76 -127 153 -191 228c-37 43 -76 85 -107 132c-3 4 -7 8 -11 11c-8 5 -16 12 -26 7c-8 -5 -6 -15 -6 -22c0 -94 1 -189 2 -283c0 -21 -1 -43 -3 -64
c-3 -26 -13 -35 -39 -37c-12 -1 -24 -1 -36 -2c-35 0 -51 12 -51 47c1 77 -8 153 -6 230c3 113 3 225 5 338c0 21 -8 46 19 56c29 10 57 6 78 -17c33 -33 65 -68 96 -103c40 -43 79 -88 114 -136c28 -39 60 -75 95 -109c7 -7 13 -14 21 -19c14 -9 26 -3 27 15
c1 35 0 70 0 104c0 73 -1 146 0 218c0 42 6 47 46 48c4 1 8 1 12 1c68 -2 76 -3 79 -80c3 -83 0 -167 0 -261z" />
    <glyph glyph-name="Ntilde" unicode="&#xd1;" horiz-adv-x="820" 
d="M565 903c6 -11 2 -20 -6 -27c-16 -17 -33 -34 -55 -45c-31 -17 -63 -16 -93 4c-12 7 -22 14 -32 21c-20 13 -38 12 -55 -6c-2 -2 -4 -5 -6 -8c-24 -29 -53 -14 -66 16c-3 6 -3 11 1 15c21 29 44 54 80 65c7 2 14 2 17 2c24 0 42 -5 58 -17c13 -9 26 -18 39 -24
c24 -12 41 -8 59 13c22 24 45 21 59 -9zM704 338c-3 -66 7 -142 2 -219c-2 -25 -4 -51 -8 -76c-6 -49 -38 -64 -79 -37c-13 7 -23 18 -33 30c-64 76 -127 153 -191 228c-37 43 -76 85 -107 132c-3 4 -7 8 -11 11c-8 5 -16 12 -26 7c-8 -5 -6 -15 -6 -22c0 -94 1 -189 2 -283
c0 -21 -1 -43 -3 -64c-3 -26 -13 -35 -39 -37c-12 -1 -24 -1 -36 -2c-35 0 -51 12 -51 47c1 77 -8 153 -6 230c3 113 3 225 5 338c0 21 -8 46 19 56c29 10 57 6 78 -17c33 -33 65 -68 96 -103c40 -43 79 -88 114 -136c28 -39 60 -75 95 -109c7 -7 13 -14 21 -19
c14 -9 26 -3 27 15c1 35 0 70 0 104c0 73 -1 146 0 218c0 42 6 47 46 48c4 1 8 1 12 1c68 -2 76 -3 79 -80c3 -83 0 -167 0 -261z" />
    <glyph glyph-name="O" unicode="O" horiz-adv-x="947" 
d="M828 399c29 -133 -35 -281 -152 -351c-70 -41 -145 -55 -238 -57c-87 2 -169 41 -237 117c-122 135 -108 312 -22 447c8 14 19 27 31 37c57 47 116 94 192 104c102 14 198 1 282 -67c74 -60 123 -136 144 -230zM696 318c8 49 -12 88 -35 129c-41 76 -101 119 -189 119
c-21 -1 -41 0 -60 -6c-93 -27 -143 -91 -160 -183c-17 -88 4 -162 89 -208c10 -5 18 -12 27 -18c136 -73 300 -12 328 167z" />
    <glyph glyph-name="O" unicode="o" horiz-adv-x="947" 
d="M828 399c29 -133 -35 -281 -152 -351c-70 -41 -145 -55 -238 -57c-87 2 -169 41 -237 117c-122 135 -108 312 -22 447c8 14 19 27 31 37c57 47 116 94 192 104c102 14 198 1 282 -67c74 -60 123 -136 144 -230zM696 318c8 49 -12 88 -35 129c-41 76 -101 119 -189 119
c-21 -1 -41 0 -60 -6c-93 -27 -143 -91 -160 -183c-17 -88 4 -162 89 -208c10 -5 18 -12 27 -18c136 -73 300 -12 328 167z" />
    <glyph glyph-name="Oacute" unicode="&#xd3;" horiz-adv-x="947" 
d="M513 939c20 -19 23 -28 11 -46c-4 -5 -7 -9 -12 -13c-24 -25 -50 -49 -75 -73c-16 -14 -28 -12 -45 7c-15 16 -15 27 -1 42c14 14 27 28 41 41h1c13 14 27 28 41 41c16 15 23 14 39 1zM828 399c29 -133 -35 -281 -152 -351c-70 -41 -145 -55 -238 -57
c-87 2 -169 41 -237 117c-122 135 -108 312 -22 447c8 14 19 27 31 37c57 47 116 94 192 104c102 14 198 1 282 -67c74 -60 123 -136 144 -230zM696 318c8 49 -12 88 -35 129c-41 76 -101 119 -189 119c-21 -1 -41 0 -60 -6c-93 -27 -143 -91 -160 -183
c-17 -88 4 -162 89 -208c10 -5 18 -12 27 -18c136 -73 300 -12 328 167z" />
    <glyph glyph-name="Ocircumflex" unicode="&#xd4;" horiz-adv-x="947" 
d="M474 865c6 2 17 -23 26 -35c5 -8 11 -14 21 -14c8 0 27 -1 31 7c5 8 -2 13 -6 19c-17 26 -38 48 -53 76c-2 4 -6 9 -10 13c-6 7 -13 7 -21 0c-1 -3 -4 -5 -6 -8c-19 -27 -38 -55 -56 -84c-2 -2 -4 -6 -5 -9c-3 -6 -1 -10 4 -13c12 -5 38 -1 46 10l17 26c5 6 6 10 12 12z
M828 399c29 -133 -35 -281 -152 -351c-70 -41 -145 -55 -238 -57c-87 2 -169 41 -237 117c-122 135 -108 312 -22 447c8 14 19 27 31 37c57 47 116 94 192 104c102 14 198 1 282 -67c74 -60 123 -136 144 -230zM696 318c8 49 -12 88 -35 129c-41 76 -101 119 -189 119
c-21 -1 -41 0 -60 -6c-93 -27 -143 -91 -160 -183c-17 -88 4 -162 89 -208c10 -5 18 -12 27 -18c136 -73 300 -12 328 167z" />
    <glyph glyph-name="Odieresis" unicode="&#xd6;" horiz-adv-x="947" 
d="M526 878c-1 29 24 58 51 55c41 -3 64 -20 65 -59c0 -35 -21 -55 -56 -55s-59 24 -60 59zM426 874c-1 -31 -32 -59 -63 -59c-32 0 -58 27 -58 59c1 34 27 60 58 59c33 0 63 -30 63 -59zM828 399c29 -133 -35 -281 -152 -351c-70 -41 -145 -55 -238 -57
c-87 2 -169 41 -237 117c-122 135 -108 312 -22 447c8 14 19 27 31 37c57 47 116 94 192 104c102 14 198 1 282 -67c74 -60 123 -136 144 -230zM696 318c8 49 -12 88 -35 129c-41 76 -101 119 -189 119c-21 -1 -41 0 -60 -6c-93 -27 -143 -91 -160 -183
c-17 -88 4 -162 89 -208c10 -5 18 -12 27 -18c136 -73 300 -12 328 167z" />
    <glyph glyph-name="Ograve" unicode="&#xd2;" horiz-adv-x="947" 
d="M557 816c-19 -20 -28 -23 -46 -11c-5 4 -9 7 -13 12c-25 24 -49 50 -73 75c-14 16 -12 28 7 45c16 15 27 15 42 1c14 -14 28 -27 41 -41v-1c14 -13 28 -27 41 -41c15 -16 14 -23 1 -39zM828 399c29 -133 -35 -281 -152 -351c-70 -41 -145 -55 -238 -57
c-87 2 -169 41 -237 117c-122 135 -108 312 -22 447c8 14 19 27 31 37c57 47 116 94 192 104c102 14 198 1 282 -67c74 -60 123 -136 144 -230zM696 318c8 49 -12 88 -35 129c-41 76 -101 119 -189 119c-21 -1 -41 0 -60 -6c-93 -27 -143 -91 -160 -183
c-17 -88 4 -162 89 -208c10 -5 18 -12 27 -18c136 -73 300 -12 328 167z" />
    <glyph glyph-name="Otilde" unicode="&#xd5;" horiz-adv-x="947" 
d="M629 903c6 -11 2 -20 -6 -27c-16 -17 -33 -34 -55 -45c-31 -17 -63 -16 -93 4c-12 7 -22 14 -32 21c-20 13 -38 12 -55 -6c-2 -2 -4 -5 -6 -8c-24 -29 -53 -14 -66 16c-3 6 -3 11 1 15c21 29 44 54 80 65c7 2 14 2 17 2c24 0 42 -5 58 -17c13 -9 26 -18 39 -24
c24 -12 41 -8 59 13c22 24 45 21 59 -9zM828 399c29 -133 -35 -281 -152 -351c-70 -41 -145 -55 -238 -57c-87 2 -169 41 -237 117c-122 135 -108 312 -22 447c8 14 19 27 31 37c57 47 116 94 192 104c102 14 198 1 282 -67c74 -60 123 -136 144 -230zM696 318
c8 49 -12 88 -35 129c-41 76 -101 119 -189 119c-21 -1 -41 0 -60 -6c-93 -27 -143 -91 -160 -183c-17 -88 4 -162 89 -208c10 -5 18 -12 27 -18c136 -73 300 -12 328 167z" />
    <glyph glyph-name="P" unicode="P" horiz-adv-x="712" 
d="M435 677c107 -33 188 -164 158 -271c-25 -88 -87 -144 -178 -164c-38 -8 -77 -11 -116 -13c-40 -2 -50 -11 -50 -51s1 -81 0 -121c-2 -46 -14 -56 -59 -57c-68 -1 -78 8 -75 75c1 39 -3 78 -3 117c-1 146 11 293 6 439c-1 41 11 53 53 55c45 2 91 11 134 3
c45 1 88 1 130 -12zM433 393c47 54 24 139 -44 155c-32 8 -66 11 -99 9c-25 -1 -39 -15 -42 -39c-1 -8 0 -17 0 -23c2 -35 5 -68 7 -101c1 -12 4 -21 14 -27c47 -28 129 -15 164 26z" />
    <glyph glyph-name="P" unicode="p" horiz-adv-x="712" 
d="M435 677c107 -33 188 -164 158 -271c-25 -88 -87 -144 -178 -164c-38 -8 -77 -11 -116 -13c-40 -2 -50 -11 -50 -51s1 -81 0 -121c-2 -46 -14 -56 -59 -57c-68 -1 -78 8 -75 75c1 39 -3 78 -3 117c-1 146 11 293 6 439c-1 41 11 53 53 55c45 2 91 11 134 3
c45 1 88 1 130 -12zM433 393c47 54 24 139 -44 155c-32 8 -66 11 -99 9c-25 -1 -39 -15 -42 -39c-1 -8 0 -17 0 -23c2 -35 5 -68 7 -101c1 -12 4 -21 14 -27c47 -28 129 -15 164 26z" />
    <glyph glyph-name="Q" unicode="Q" horiz-adv-x="893" 
d="M785 282c-16 -55 -42 -107 -78 -152c-5 -8 -11 -15 -19 -25c9 -16 18 -29 26 -42c15 -27 12 -39 -12 -57c-55 -40 -58 -41 -98 15c-9 16 -28 24 -46 18c-11 -2 -23 -4 -34 -7c-53 -15 -103 7 -154 11c-57 5 -109 32 -145 76c-9 10 -19 18 -30 26c-48 34 -77 88 -80 146
c-4 43 -4 87 1 129c11 109 77 205 175 253c123 63 239 41 352 -18c48 -25 81 -70 106 -118c40 -81 58 -166 36 -255zM680 343c5 69 -22 126 -72 174c-52 49 -111 79 -183 72c-53 -5 -103 -22 -136 -68c-43 -57 -61 -128 -52 -199c3 -55 35 -104 84 -129c16 -9 31 -19 48 -26
c47 -19 95 -35 150 -7c-9 14 -17 28 -24 41c-6 7 -8 15 -6 24c1 8 6 16 14 20c7 6 13 12 21 18c24 16 34 15 53 -7c12 -14 22 -29 36 -49c38 36 62 84 67 136z" />
    <glyph glyph-name="Q" unicode="q" horiz-adv-x="893" 
d="M785 282c-16 -55 -42 -107 -78 -152c-5 -8 -11 -15 -19 -25c9 -16 18 -29 26 -42c15 -27 12 -39 -12 -57c-55 -40 -58 -41 -98 15c-9 16 -28 24 -46 18c-11 -2 -23 -4 -34 -7c-53 -15 -103 7 -154 11c-57 5 -109 32 -145 76c-9 10 -19 18 -30 26c-48 34 -77 88 -80 146
c-4 43 -4 87 1 129c11 109 77 205 175 253c123 63 239 41 352 -18c48 -25 81 -70 106 -118c40 -81 58 -166 36 -255zM680 343c5 69 -22 126 -72 174c-52 49 -111 79 -183 72c-53 -5 -103 -22 -136 -68c-43 -57 -61 -128 -52 -199c3 -55 35 -104 84 -129c16 -9 31 -19 48 -26
c47 -19 95 -35 150 -7c-9 14 -17 28 -24 41c-6 7 -8 15 -6 24c1 8 6 16 14 20c7 6 13 12 21 18c24 16 34 15 53 -7c12 -14 22 -29 36 -49c38 36 62 84 67 136z" />
    <glyph glyph-name="R" unicode="R" horiz-adv-x="746" 
d="M495 303c-37 -24 -40 -20 -19 -58c29 -53 99 -108 131 -159c4 -7 8 -14 11 -22c15 -36 2 -58 -38 -59c-88 0 -90 -2 -128 75c-25 52 -88 130 -116 177c-21 35 -81 37 -86 14c-3 -14 -4 -24 -4 -39c1 -52 -5 -104 3 -156c7 -50 -7 -62 -58 -62c-2 0 -3 -1 -4 -1
c-57 0 -69 10 -71 68c-2 73 -2 147 -3 221c-1 22 0 43 0 65h-1v258c0 9 0 18 1 28c3 33 14 44 47 49c7 1 14 2 20 2c85 -7 169 1 254 -4c67 -4 118 -33 153 -90c30 -50 53 -103 45 -164c-8 -57 -64 -105 -127 -138c-3 -1 -7 -3 -10 -5zM408 385c52 1 94 52 92 107
c-2 45 -41 79 -94 80c-43 1 -85 0 -128 1c-11 0 -18 -2 -22 -6c-6 -7 -6 -17 -6 -23c1 -19 -2 -38 -3 -57c0 -25 -4 -52 -1 -79c0 -5 1 -15 9 -21c4 -4 10 -4 12 -4c79 -5 116 1 141 2z" />
    <glyph glyph-name="R" unicode="r" horiz-adv-x="746" 
d="M495 303c-37 -24 -40 -20 -19 -58c29 -53 99 -108 131 -159c4 -7 8 -14 11 -22c15 -36 2 -58 -38 -59c-88 0 -90 -2 -128 75c-25 52 -88 130 -116 177c-21 35 -81 37 -86 14c-3 -14 -4 -24 -4 -39c1 -52 -5 -104 3 -156c7 -50 -7 -62 -58 -62c-2 0 -3 -1 -4 -1
c-57 0 -69 10 -71 68c-2 73 -2 147 -3 221c-1 22 0 43 0 65h-1v258c0 9 0 18 1 28c3 33 14 44 47 49c7 1 14 2 20 2c85 -7 169 1 254 -4c67 -4 118 -33 153 -90c30 -50 53 -103 45 -164c-8 -57 -64 -105 -127 -138c-3 -1 -7 -3 -10 -5zM408 385c52 1 94 52 92 107
c-2 45 -41 79 -94 80c-43 1 -85 0 -128 1c-11 0 -18 -2 -22 -6c-6 -7 -6 -17 -6 -23c1 -19 -2 -38 -3 -57c0 -25 -4 -52 -1 -79c0 -5 1 -15 9 -21c4 -4 10 -4 12 -4c79 -5 116 1 141 2z" />
    <glyph glyph-name="S" unicode="S" horiz-adv-x="679" 
d="M558 243c31 -93 -23 -236 -164 -260c-17 -3 -34 -4 -54 -6c-79 8 -152 35 -212 92c-2 1 -4 3 -6 6c-15 18 -7 39 24 82c16 21 30 24 53 12c21 -11 41 -38 63 -49c39 -19 80 -17 124 -1c53 20 61 76 17 111c-32 27 -69 45 -109 59c-45 15 -89 34 -121 70
c-50 56 -64 123 -45 197c16 68 54 109 121 129c98 29 186 10 269 -47c17 -11 20 -23 11 -40c-4 -8 -7 -17 -12 -25c-23 -43 -36 -46 -80 -25c-20 10 -41 19 -63 26c-40 13 -74 1 -106 -23c-24 -18 -27 -34 -16 -64c13 -33 40 -53 71 -67c40 -19 81 -36 122 -54
c56 -24 94 -65 113 -123z" />
    <glyph glyph-name="S" unicode="s" horiz-adv-x="679" 
d="M558 243c31 -93 -23 -236 -164 -260c-17 -3 -34 -4 -54 -6c-79 8 -152 35 -212 92c-2 1 -4 3 -6 6c-15 18 -7 39 24 82c16 21 30 24 53 12c21 -11 41 -38 63 -49c39 -19 80 -17 124 -1c53 20 61 76 17 111c-32 27 -69 45 -109 59c-45 15 -89 34 -121 70
c-50 56 -64 123 -45 197c16 68 54 109 121 129c98 29 186 10 269 -47c17 -11 20 -23 11 -40c-4 -8 -7 -17 -12 -25c-23 -43 -36 -46 -80 -25c-20 10 -41 19 -63 26c-40 13 -74 1 -106 -23c-24 -18 -27 -34 -16 -64c13 -33 40 -53 71 -67c40 -19 81 -36 122 -54
c56 -24 94 -65 113 -123z" />
    <glyph glyph-name="T" unicode="T" horiz-adv-x="708" 
d="M530 687c57 4 72 -15 63 -72l-3 -16c-6 -28 -11 -34 -40 -35c-37 -1 -73 -1 -109 0c-17 0 -25 -5 -24 -23c1 -7 1 -13 1 -20c2 -101 5 -202 6 -303c0 -55 -2 -110 -6 -165c-2 -51 -50 -78 -97 -59c-22 10 -28 29 -29 49c-2 31 -3 62 -3 93v121c3 89 0 178 7 266
c3 41 -1 44 -43 44c-27 0 -54 -2 -81 -3c-20 0 -42 2 -51 23c-12 28 -13 58 2 86c5 11 17 12 28 13c94 3 188 7 282 2c32 -2 65 -3 97 -1z" />
    <glyph glyph-name="T" unicode="t" horiz-adv-x="708" 
d="M530 687c57 4 72 -15 63 -72l-3 -16c-6 -28 -11 -34 -40 -35c-37 -1 -73 -1 -109 0c-17 0 -25 -5 -24 -23c1 -7 1 -13 1 -20c2 -101 5 -202 6 -303c0 -55 -2 -110 -6 -165c-2 -51 -50 -78 -97 -59c-22 10 -28 29 -29 49c-2 31 -3 62 -3 93v121c3 89 0 178 7 266
c3 41 -1 44 -43 44c-27 0 -54 -2 -81 -3c-20 0 -42 2 -51 23c-12 28 -13 58 2 86c5 11 17 12 28 13c94 3 188 7 282 2c32 -2 65 -3 97 -1z" />
    <glyph glyph-name="U" unicode="U" horiz-adv-x="777" 
d="M661 612c-3 -131 11 -263 -5 -394c-11 -90 -59 -156 -140 -193c-65 -31 -134 -41 -207 -22c-87 24 -141 81 -173 161c-15 38 -17 71 -21 134c-4 56 -3 103 -1 137c0 58 -2 116 0 173c3 91 20 76 79 77c43 0 52 -8 52 -53c0 -76 -3 -153 -1 -230c1 -55 -1 -110 7 -164
c7 -46 24 -65 33 -76c7 -8 49 -61 119 -57c56 4 97 43 114 80c4 8 10 19 10 71c1 70 -1 140 2 210c2 58 8 115 5 173c-2 36 9 45 45 47c70 4 83 -4 82 -74z" />
    <glyph glyph-name="U" unicode="u" horiz-adv-x="777" 
d="M661 612c-3 -131 11 -263 -5 -394c-11 -90 -59 -156 -140 -193c-65 -31 -134 -41 -207 -22c-87 24 -141 81 -173 161c-15 38 -17 71 -21 134c-4 56 -3 103 -1 137c0 58 -2 116 0 173c3 91 20 76 79 77c43 0 52 -8 52 -53c0 -76 -3 -153 -1 -230c1 -55 -1 -110 7 -164
c7 -46 24 -65 33 -76c7 -8 49 -61 119 -57c56 4 97 43 114 80c4 8 10 19 10 71c1 70 -1 140 2 210c2 58 8 115 5 173c-2 36 9 45 45 47c70 4 83 -4 82 -74z" />
    <glyph glyph-name="Uacute" unicode="&#xda;" horiz-adv-x="777" 
d="M428 939c20 -19 23 -28 11 -46c-4 -5 -7 -9 -12 -13c-24 -25 -50 -49 -75 -73c-16 -14 -28 -12 -45 7c-15 16 -15 27 -1 42c14 14 27 28 41 41h1c13 14 27 28 41 41c16 15 23 14 39 1zM661 612c-3 -131 11 -263 -5 -394c-11 -90 -59 -156 -140 -193
c-65 -31 -134 -41 -207 -22c-87 24 -141 81 -173 161c-15 38 -17 71 -21 134c-4 56 -3 103 -1 137c0 58 -2 116 0 173c3 91 20 76 79 77c43 0 52 -8 52 -53c0 -76 -3 -153 -1 -230c1 -55 -1 -110 7 -164c7 -46 24 -65 33 -76c7 -8 49 -61 119 -57c56 4 97 43 114 80
c4 8 10 19 10 71c1 70 -1 140 2 210c2 58 8 115 5 173c-2 36 9 45 45 47c70 4 83 -4 82 -74z" />
    <glyph glyph-name="Ucircumflex" unicode="&#xdb;" horiz-adv-x="777" 
d="M389 865c6 2 17 -23 26 -35c5 -8 11 -14 21 -14c8 0 27 -1 31 7c5 8 -2 13 -6 19c-17 26 -38 48 -53 76c-2 4 -6 9 -10 13c-6 7 -13 7 -21 0c-1 -3 -4 -5 -6 -8c-19 -27 -38 -55 -56 -84c-2 -2 -4 -6 -5 -9c-3 -6 -1 -10 4 -13c12 -5 38 -1 46 10l17 26c5 6 6 10 12 12z
M661 612c-3 -131 11 -263 -5 -394c-11 -90 -59 -156 -140 -193c-65 -31 -134 -41 -207 -22c-87 24 -141 81 -173 161c-15 38 -17 71 -21 134c-4 56 -3 103 -1 137c0 58 -2 116 0 173c3 91 20 76 79 77c43 0 52 -8 52 -53c0 -76 -3 -153 -1 -230c1 -55 -1 -110 7 -164
c7 -46 24 -65 33 -76c7 -8 49 -61 119 -57c56 4 97 43 114 80c4 8 10 19 10 71c1 70 -1 140 2 210c2 58 8 115 5 173c-2 36 9 45 45 47c70 4 83 -4 82 -74z" />
    <glyph glyph-name="Udieresis" unicode="&#xdc;" horiz-adv-x="777" 
d="M441 878c-1 29 24 58 51 55c41 -3 64 -20 65 -59c0 -35 -21 -55 -56 -55s-59 24 -60 59zM341 874c-1 -31 -32 -59 -63 -59c-32 0 -58 27 -58 59c1 34 27 60 58 59c33 0 63 -30 63 -59zM661 612c-3 -131 11 -263 -5 -394c-11 -90 -59 -156 -140 -193
c-65 -31 -134 -41 -207 -22c-87 24 -141 81 -173 161c-15 38 -17 71 -21 134c-4 56 -3 103 -1 137c0 58 -2 116 0 173c3 91 20 76 79 77c43 0 52 -8 52 -53c0 -76 -3 -153 -1 -230c1 -55 -1 -110 7 -164c7 -46 24 -65 33 -76c7 -8 49 -61 119 -57c56 4 97 43 114 80
c4 8 10 19 10 71c1 70 -1 140 2 210c2 58 8 115 5 173c-2 36 9 45 45 47c70 4 83 -4 82 -74z" />
    <glyph glyph-name="Ugrave" unicode="&#xd9;" horiz-adv-x="777" 
d="M472 816c-19 -20 -28 -23 -46 -11c-5 4 -9 7 -13 12c-25 24 -49 50 -73 75c-14 16 -12 28 7 45c16 15 27 15 42 1c14 -14 28 -27 41 -41v-1c14 -13 28 -27 41 -41c15 -16 14 -23 1 -39zM661 612c-3 -131 11 -263 -5 -394c-11 -90 -59 -156 -140 -193
c-65 -31 -134 -41 -207 -22c-87 24 -141 81 -173 161c-15 38 -17 71 -21 134c-4 56 -3 103 -1 137c0 58 -2 116 0 173c3 91 20 76 79 77c43 0 52 -8 52 -53c0 -76 -3 -153 -1 -230c1 -55 -1 -110 7 -164c7 -46 24 -65 33 -76c7 -8 49 -61 119 -57c56 4 97 43 114 80
c4 8 10 19 10 71c1 70 -1 140 2 210c2 58 8 115 5 173c-2 36 9 45 45 47c70 4 83 -4 82 -74z" />
    <glyph glyph-name="V" unicode="V" horiz-adv-x="878" 
d="M734 685c29 -5 38 -21 28 -49c-4 -10 -9 -20 -14 -30c-87 -181 -167 -366 -248 -550c-6 -15 -14 -29 -22 -43c-20 -34 -75 -39 -91 8c-19 54 -44 106 -68 159c-48 106 -94 214 -141 321c-16 36 -37 71 -53 108c-26 56 -13 76 49 76c50 0 65 -10 82 -55
c35 -93 75 -184 118 -273c20 -42 35 -87 62 -130c15 12 18 26 23 38c47 119 95 237 150 352c5 12 12 24 17 36c12 30 33 41 64 36c15 -2 29 -2 44 -4z" />
    <glyph glyph-name="V" unicode="v" horiz-adv-x="878" 
d="M734 685c29 -5 38 -21 28 -49c-4 -10 -9 -20 -14 -30c-87 -181 -167 -366 -248 -550c-6 -15 -14 -29 -22 -43c-20 -34 -75 -39 -91 8c-19 54 -44 106 -68 159c-48 106 -94 214 -141 321c-16 36 -37 71 -53 108c-26 56 -13 76 49 76c50 0 65 -10 82 -55
c35 -93 75 -184 118 -273c20 -42 35 -87 62 -130c15 12 18 26 23 38c47 119 95 237 150 352c5 12 12 24 17 36c12 30 33 41 64 36c15 -2 29 -2 44 -4z" />
    <glyph glyph-name="W" unicode="W" horiz-adv-x="1042" 
d="M901 680c25 -7 31 -15 28 -41c-5 -47 -14 -94 -30 -137c-50 -131 -80 -268 -117 -402c-7 -26 -13 -52 -24 -77c-7 -17 -18 -29 -38 -32c-32 -5 -46 2 -57 36c-25 77 -56 151 -84 227c-22 57 -43 115 -58 180c-36 -83 -64 -162 -87 -244c-11 -41 -23 -83 -35 -124
c-5 -16 -11 -33 -18 -49c-11 -23 -31 -32 -56 -31c-26 0 -36 17 -42 36c-14 44 -25 88 -38 132c-40 147 -81 295 -122 442c-5 20 -12 39 -11 59c1 19 8 31 29 30c18 -1 35 1 53 1c37 -1 46 -8 53 -46c5 -23 10 -47 14 -71c10 -65 40 -125 52 -190c6 -35 17 -70 26 -104
c16 3 15 14 17 22l96 312c3 10 7 20 11 30c11 28 26 50 61 48c31 -1 46 -12 57 -52c18 -64 41 -125 62 -188c17 -49 36 -98 55 -147c2 -6 2 -14 13 -15c17 25 22 55 27 85c17 91 41 180 60 271c8 37 11 39 51 42c18 2 35 2 52 -3z" />
    <glyph glyph-name="W" unicode="w" horiz-adv-x="1042" 
d="M901 680c25 -7 31 -15 28 -41c-5 -47 -14 -94 -30 -137c-50 -131 -80 -268 -117 -402c-7 -26 -13 -52 -24 -77c-7 -17 -18 -29 -38 -32c-32 -5 -46 2 -57 36c-25 77 -56 151 -84 227c-22 57 -43 115 -58 180c-36 -83 -64 -162 -87 -244c-11 -41 -23 -83 -35 -124
c-5 -16 -11 -33 -18 -49c-11 -23 -31 -32 -56 -31c-26 0 -36 17 -42 36c-14 44 -25 88 -38 132c-40 147 -81 295 -122 442c-5 20 -12 39 -11 59c1 19 8 31 29 30c18 -1 35 1 53 1c37 -1 46 -8 53 -46c5 -23 10 -47 14 -71c10 -65 40 -125 52 -190c6 -35 17 -70 26 -104
c16 3 15 14 17 22l96 312c3 10 7 20 11 30c11 28 26 50 61 48c31 -1 46 -12 57 -52c18 -64 41 -125 62 -188c17 -49 36 -98 55 -147c2 -6 2 -14 13 -15c17 25 22 55 27 85c17 91 41 180 60 271c8 37 11 39 51 42c18 2 35 2 52 -3z" />
    <glyph glyph-name="Wacute" unicode="&#x1e82;" horiz-adv-x="1042" 
d="M560 939c20 -19 23 -28 11 -46c-4 -5 -7 -9 -12 -13c-24 -25 -50 -49 -75 -73c-16 -14 -28 -12 -45 7c-15 16 -15 27 -1 42c14 14 27 28 41 41h1c13 14 27 28 41 41c16 15 23 14 39 1zM901 680c25 -7 31 -15 28 -41c-5 -47 -14 -94 -30 -137c-50 -131 -80 -268 -117 -402
c-7 -26 -13 -52 -24 -77c-7 -17 -18 -29 -38 -32c-32 -5 -46 2 -57 36c-25 77 -56 151 -84 227c-22 57 -43 115 -58 180c-36 -83 -64 -162 -87 -244c-11 -41 -23 -83 -35 -124c-5 -16 -11 -33 -18 -49c-11 -23 -31 -32 -56 -31c-26 0 -36 17 -42 36c-14 44 -25 88 -38 132
c-40 147 -81 295 -122 442c-5 20 -12 39 -11 59c1 19 8 31 29 30c18 -1 35 1 53 1c37 -1 46 -8 53 -46c5 -23 10 -47 14 -71c10 -65 40 -125 52 -190c6 -35 17 -70 26 -104c16 3 15 14 17 22l96 312c3 10 7 20 11 30c11 28 26 50 61 48c31 -1 46 -12 57 -52
c18 -64 41 -125 62 -188c17 -49 36 -98 55 -147c2 -6 2 -14 13 -15c17 25 22 55 27 85c17 91 41 180 60 271c8 37 11 39 51 42c18 2 35 2 52 -3z" />
    <glyph glyph-name="Wcircumflex" unicode="&#x174;" horiz-adv-x="1042" 
d="M521 865c6 2 17 -23 26 -35c5 -8 11 -14 21 -14c8 0 27 -1 31 7c5 8 -2 13 -6 19c-17 26 -38 48 -53 76c-2 4 -6 9 -10 13c-6 7 -13 7 -21 0c-1 -3 -4 -5 -6 -8c-19 -27 -38 -55 -56 -84c-2 -2 -4 -6 -5 -9c-3 -6 -1 -10 4 -13c12 -5 38 -1 46 10l17 26c5 6 6 10 12 12z
M901 680c25 -7 31 -15 28 -41c-5 -47 -14 -94 -30 -137c-50 -131 -80 -268 -117 -402c-7 -26 -13 -52 -24 -77c-7 -17 -18 -29 -38 -32c-32 -5 -46 2 -57 36c-25 77 -56 151 -84 227c-22 57 -43 115 -58 180c-36 -83 -64 -162 -87 -244c-11 -41 -23 -83 -35 -124
c-5 -16 -11 -33 -18 -49c-11 -23 -31 -32 -56 -31c-26 0 -36 17 -42 36c-14 44 -25 88 -38 132c-40 147 -81 295 -122 442c-5 20 -12 39 -11 59c1 19 8 31 29 30c18 -1 35 1 53 1c37 -1 46 -8 53 -46c5 -23 10 -47 14 -71c10 -65 40 -125 52 -190c6 -35 17 -70 26 -104
c16 3 15 14 17 22l96 312c3 10 7 20 11 30c11 28 26 50 61 48c31 -1 46 -12 57 -52c18 -64 41 -125 62 -188c17 -49 36 -98 55 -147c2 -6 2 -14 13 -15c17 25 22 55 27 85c17 91 41 180 60 271c8 37 11 39 51 42c18 2 35 2 52 -3z" />
    <glyph glyph-name="Wdieresis" unicode="&#x1e84;" horiz-adv-x="1042" 
d="M573 878c-1 29 24 58 51 55c41 -3 64 -20 65 -59c0 -35 -21 -55 -56 -55s-59 24 -60 59zM473 874c-1 -31 -32 -59 -63 -59c-32 0 -58 27 -58 59c1 34 27 60 58 59c33 0 63 -30 63 -59zM901 680c25 -7 31 -15 28 -41c-5 -47 -14 -94 -30 -137c-50 -131 -80 -268 -117 -402
c-7 -26 -13 -52 -24 -77c-7 -17 -18 -29 -38 -32c-32 -5 -46 2 -57 36c-25 77 -56 151 -84 227c-22 57 -43 115 -58 180c-36 -83 -64 -162 -87 -244c-11 -41 -23 -83 -35 -124c-5 -16 -11 -33 -18 -49c-11 -23 -31 -32 -56 -31c-26 0 -36 17 -42 36c-14 44 -25 88 -38 132
c-40 147 -81 295 -122 442c-5 20 -12 39 -11 59c1 19 8 31 29 30c18 -1 35 1 53 1c37 -1 46 -8 53 -46c5 -23 10 -47 14 -71c10 -65 40 -125 52 -190c6 -35 17 -70 26 -104c16 3 15 14 17 22l96 312c3 10 7 20 11 30c11 28 26 50 61 48c31 -1 46 -12 57 -52
c18 -64 41 -125 62 -188c17 -49 36 -98 55 -147c2 -6 2 -14 13 -15c17 25 22 55 27 85c17 91 41 180 60 271c8 37 11 39 51 42c18 2 35 2 52 -3z" />
    <glyph glyph-name="Wgrave" unicode="&#x1e80;" horiz-adv-x="1042" 
d="M604 816c-19 -20 -28 -23 -46 -11c-5 4 -9 7 -13 12c-25 24 -49 50 -73 75c-14 16 -12 28 7 45c16 15 27 15 42 1c14 -14 28 -27 41 -41v-1c14 -13 28 -27 41 -41c15 -16 14 -23 1 -39zM901 680c25 -7 31 -15 28 -41c-5 -47 -14 -94 -30 -137
c-50 -131 -80 -268 -117 -402c-7 -26 -13 -52 -24 -77c-7 -17 -18 -29 -38 -32c-32 -5 -46 2 -57 36c-25 77 -56 151 -84 227c-22 57 -43 115 -58 180c-36 -83 -64 -162 -87 -244c-11 -41 -23 -83 -35 -124c-5 -16 -11 -33 -18 -49c-11 -23 -31 -32 -56 -31
c-26 0 -36 17 -42 36c-14 44 -25 88 -38 132c-40 147 -81 295 -122 442c-5 20 -12 39 -11 59c1 19 8 31 29 30c18 -1 35 1 53 1c37 -1 46 -8 53 -46c5 -23 10 -47 14 -71c10 -65 40 -125 52 -190c6 -35 17 -70 26 -104c16 3 15 14 17 22l96 312c3 10 7 20 11 30
c11 28 26 50 61 48c31 -1 46 -12 57 -52c18 -64 41 -125 62 -188c17 -49 36 -98 55 -147c2 -6 2 -14 13 -15c17 25 22 55 27 85c17 91 41 180 60 271c8 37 11 39 51 42c18 2 35 2 52 -3z" />
    <glyph glyph-name="X" unicode="X" horiz-adv-x="768" 
d="M648 48c17 -33 7 -50 -29 -57c-25 -5 -51 -4 -76 -1c-20 3 -30 17 -39 33l-63 121c-10 19 -20 39 -31 57c-24 38 -34 37 -57 -3c-7 -13 -12 -27 -18 -40c-19 -45 -40 -89 -67 -129c-12 -19 -25 -40 -50 -43c-31 -3 -62 -1 -91 11c-13 6 -18 19 -13 35c6 22 18 42 31 60
c52 71 98 145 143 220c22 37 22 42 -4 74c-51 62 -91 130 -134 197c-7 13 -14 26 -19 40c-10 28 1 50 29 55c27 5 56 5 84 -1c18 -4 28 -19 37 -35l82 -147c5 -10 9 -20 22 -29c15 16 25 33 36 50c26 45 53 90 78 136c11 19 25 30 49 28c21 -2 43 1 64 -2
c38 -5 48 -29 26 -60c-56 -78 -102 -164 -157 -243c-16 -22 -15 -40 -2 -63c26 -48 55 -95 89 -138c30 -40 57 -82 80 -126z" />
    <glyph glyph-name="X" unicode="x" horiz-adv-x="768" 
d="M648 48c17 -33 7 -50 -29 -57c-25 -5 -51 -4 -76 -1c-20 3 -30 17 -39 33l-63 121c-10 19 -20 39 -31 57c-24 38 -34 37 -57 -3c-7 -13 -12 -27 -18 -40c-19 -45 -40 -89 -67 -129c-12 -19 -25 -40 -50 -43c-31 -3 -62 -1 -91 11c-13 6 -18 19 -13 35c6 22 18 42 31 60
c52 71 98 145 143 220c22 37 22 42 -4 74c-51 62 -91 130 -134 197c-7 13 -14 26 -19 40c-10 28 1 50 29 55c27 5 56 5 84 -1c18 -4 28 -19 37 -35l82 -147c5 -10 9 -20 22 -29c15 16 25 33 36 50c26 45 53 90 78 136c11 19 25 30 49 28c21 -2 43 1 64 -2
c38 -5 48 -29 26 -60c-56 -78 -102 -164 -157 -243c-16 -22 -15 -40 -2 -63c26 -48 55 -95 89 -138c30 -40 57 -82 80 -126z" />
    <glyph glyph-name="Y" unicode="Y" horiz-adv-x="799" 
d="M649 680c37 -7 48 -30 27 -61c-18 -28 -39 -54 -59 -82l-138 -193c-14 -18 -20 -37 -19 -60c1 -67 1 -134 2 -202c0 -16 0 -32 -1 -48c-3 -35 -17 -49 -52 -46c-67 6 -89 11 -82 88c6 72 6 144 5 217c0 23 -5 41 -18 60c-47 64 -93 128 -139 193c-19 27 -38 56 -54 85
c-17 30 -9 44 25 48c10 2 19 2 28 3c38 5 62 -10 84 -41c46 -65 87 -133 141 -196c36 43 67 84 93 128c16 26 33 52 49 79c15 26 38 35 68 32c13 -1 27 -2 40 -4z" />
    <glyph glyph-name="Y" unicode="y" horiz-adv-x="799" 
d="M649 680c37 -7 48 -30 27 -61c-18 -28 -39 -54 -59 -82l-138 -193c-14 -18 -20 -37 -19 -60c1 -67 1 -134 2 -202c0 -16 0 -32 -1 -48c-3 -35 -17 -49 -52 -46c-67 6 -89 11 -82 88c6 72 6 144 5 217c0 23 -5 41 -18 60c-47 64 -93 128 -139 193c-19 27 -38 56 -54 85
c-17 30 -9 44 25 48c10 2 19 2 28 3c38 5 62 -10 84 -41c46 -65 87 -133 141 -196c36 43 67 84 93 128c16 26 33 52 49 79c15 26 38 35 68 32c13 -1 27 -2 40 -4z" />
    <glyph glyph-name="Yacute" unicode="&#xdd;" horiz-adv-x="799" 
d="M439 939c20 -19 23 -28 11 -46c-4 -5 -7 -9 -12 -13c-24 -25 -50 -49 -75 -73c-16 -14 -28 -12 -45 7c-15 16 -15 27 -1 42c14 14 27 28 41 41h1c13 14 27 28 41 41c16 15 23 14 39 1zM649 680c37 -7 48 -30 27 -61c-18 -28 -39 -54 -59 -82l-138 -193
c-14 -18 -20 -37 -19 -60c1 -67 1 -134 2 -202c0 -16 0 -32 -1 -48c-3 -35 -17 -49 -52 -46c-67 6 -89 11 -82 88c6 72 6 144 5 217c0 23 -5 41 -18 60c-47 64 -93 128 -139 193c-19 27 -38 56 -54 85c-17 30 -9 44 25 48c10 2 19 2 28 3c38 5 62 -10 84 -41
c46 -65 87 -133 141 -196c36 43 67 84 93 128c16 26 33 52 49 79c15 26 38 35 68 32c13 -1 27 -2 40 -4z" />
    <glyph glyph-name="Ycircumflex" unicode="&#x176;" horiz-adv-x="799" 
d="M400 865c6 2 17 -23 26 -35c5 -8 11 -14 21 -14c8 0 27 -1 31 7c5 8 -2 13 -6 19c-17 26 -38 48 -53 76c-2 4 -6 9 -10 13c-6 7 -13 7 -21 0c-1 -3 -4 -5 -6 -8c-19 -27 -38 -55 -56 -84c-2 -2 -4 -6 -5 -9c-3 -6 -1 -10 4 -13c12 -5 38 -1 46 10l17 26c5 6 6 10 12 12z
M649 680c37 -7 48 -30 27 -61c-18 -28 -39 -54 -59 -82l-138 -193c-14 -18 -20 -37 -19 -60c1 -67 1 -134 2 -202c0 -16 0 -32 -1 -48c-3 -35 -17 -49 -52 -46c-67 6 -89 11 -82 88c6 72 6 144 5 217c0 23 -5 41 -18 60c-47 64 -93 128 -139 193c-19 27 -38 56 -54 85
c-17 30 -9 44 25 48c10 2 19 2 28 3c38 5 62 -10 84 -41c46 -65 87 -133 141 -196c36 43 67 84 93 128c16 26 33 52 49 79c15 26 38 35 68 32c13 -1 27 -2 40 -4z" />
    <glyph glyph-name="Ydieresis" unicode="&#x178;" horiz-adv-x="799" 
d="M452 878c-1 29 24 58 51 55c41 -3 64 -20 65 -59c0 -35 -21 -55 -56 -55s-59 24 -60 59zM352 874c-1 -31 -32 -59 -63 -59c-32 0 -58 27 -58 59c1 34 27 60 58 59c33 0 63 -30 63 -59zM649 680c37 -7 48 -30 27 -61c-18 -28 -39 -54 -59 -82l-138 -193
c-14 -18 -20 -37 -19 -60c1 -67 1 -134 2 -202c0 -16 0 -32 -1 -48c-3 -35 -17 -49 -52 -46c-67 6 -89 11 -82 88c6 72 6 144 5 217c0 23 -5 41 -18 60c-47 64 -93 128 -139 193c-19 27 -38 56 -54 85c-17 30 -9 44 25 48c10 2 19 2 28 3c38 5 62 -10 84 -41
c46 -65 87 -133 141 -196c36 43 67 84 93 128c16 26 33 52 49 79c15 26 38 35 68 32c13 -1 27 -2 40 -4z" />
    <glyph glyph-name="Ygrave" unicode="&#x1ef2;" horiz-adv-x="799" 
d="M483 816c-19 -20 -28 -23 -46 -11c-5 4 -9 7 -13 12c-25 24 -49 50 -73 75c-14 16 -12 28 7 45c16 15 27 15 42 1c14 -14 28 -27 41 -41v-1c14 -13 28 -27 41 -41c15 -16 14 -23 1 -39zM649 680c37 -7 48 -30 27 -61c-18 -28 -39 -54 -59 -82l-138 -193
c-14 -18 -20 -37 -19 -60c1 -67 1 -134 2 -202c0 -16 0 -32 -1 -48c-3 -35 -17 -49 -52 -46c-67 6 -89 11 -82 88c6 72 6 144 5 217c0 23 -5 41 -18 60c-47 64 -93 128 -139 193c-19 27 -38 56 -54 85c-17 30 -9 44 25 48c10 2 19 2 28 3c38 5 62 -10 84 -41
c46 -65 87 -133 141 -196c36 43 67 84 93 128c16 26 33 52 49 79c15 26 38 35 68 32c13 -1 27 -2 40 -4z" />
    <glyph glyph-name="Z" unicode="Z" horiz-adv-x="711" 
d="M572 575c-82 -131 -154 -268 -234 -400c-30 -49 -21 -63 36 -68c31 -2 62 0 93 3c25 2 51 2 76 0c21 -2 33 -12 33 -34c0 -81 2 -94 -85 -89c-82 5 -164 -3 -246 -2c-30 0 -60 -1 -89 5c-44 9 -55 34 -33 73c16 27 34 52 50 78c28 44 53 88 76 133c41 81 91 156 139 232
c29 44 25 51 -27 52c-50 1 -100 4 -149 -3c-40 -5 -61 12 -67 51c-2 9 -3 19 -3 28c4 38 19 52 57 53c27 1 54 0 81 -1c16 0 32 -1 48 -1h45c0 1 113 4 169 3c51 -1 68 -26 50 -74c-6 -14 -12 -27 -20 -39z" />
    <glyph glyph-name="Z" unicode="z" horiz-adv-x="711" 
d="M572 575c-82 -131 -154 -268 -234 -400c-30 -49 -21 -63 36 -68c31 -2 62 0 93 3c25 2 51 2 76 0c21 -2 33 -12 33 -34c0 -81 2 -94 -85 -89c-82 5 -164 -3 -246 -2c-30 0 -60 -1 -89 5c-44 9 -55 34 -33 73c16 27 34 52 50 78c28 44 53 88 76 133c41 81 91 156 139 232
c29 44 25 51 -27 52c-50 1 -100 4 -149 -3c-40 -5 -61 12 -67 51c-2 9 -3 19 -3 28c4 38 19 52 57 53c27 1 54 0 81 -1c16 0 32 -1 48 -1h45c0 1 113 4 169 3c51 -1 68 -26 50 -74c-6 -14 -12 -27 -20 -39z" />
    <glyph glyph-name="aacute" unicode="&#xe1;" 
d="M511 917c20 -19 23 -28 11 -46c-4 -5 -7 -9 -12 -13c-24 -25 -50 -49 -75 -73c-16 -14 -28 -12 -45 7c-15 16 -15 27 -1 42c14 14 27 28 41 41h1c13 14 27 28 41 41c16 15 23 14 39 1z" />
    <glyph glyph-name="acircumflex" unicode="&#xe2;" 
d="M446 843c6 2 17 -23 26 -35c5 -8 11 -14 21 -14c8 0 27 -1 31 7c5 8 -2 13 -6 19c-17 26 -38 48 -53 76c-2 4 -6 9 -10 13c-6 7 -13 7 -21 0c-1 -3 -4 -5 -6 -8c-19 -27 -38 -55 -56 -84c-2 -2 -4 -6 -5 -9c-3 -6 -1 -10 4 -13c12 -5 38 -1 46 10l17 26c5 6 6 10 12 12z
" />
    <glyph glyph-name="adieresis" unicode="&#xe4;" 
d="M487 858c-1 29 24 58 51 55c41 -3 64 -20 65 -59c0 -35 -21 -55 -56 -55s-59 24 -60 59zM387 854c-1 -31 -32 -59 -63 -59c-32 0 -58 27 -58 59c1 34 27 60 58 59c33 0 63 -30 63 -59z" />
    <glyph glyph-name="agrave" unicode="&#xe0;" 
d="M524 794c-19 -20 -28 -23 -46 -11c-5 4 -9 7 -13 12c-25 24 -49 50 -73 75c-14 16 -12 28 7 45c16 15 27 15 42 1c14 -14 28 -27 41 -41v-1c14 -13 28 -27 41 -41c15 -16 14 -23 1 -39z" />
    <glyph glyph-name="aring" unicode="&#xe5;" 
d="M376 858c-2 34 28 69 61 65c49 -3 76 -24 78 -70c0 -42 -26 -66 -68 -66c-41 0 -70 29 -71 71zM428 841c11 -10 23 -11 34 0c9 9 8 20 0 30c-12 10 -23 9 -36 -1c-7 -8 -6 -22 2 -29z" />
    <glyph glyph-name="atilde" unicode="&#xe3;" 
d="M594 881c6 -11 2 -20 -6 -27c-16 -17 -33 -34 -55 -45c-31 -17 -63 -16 -93 4c-12 7 -22 14 -32 21c-20 13 -38 12 -55 -6c-2 -2 -4 -5 -6 -8c-24 -29 -53 -14 -66 16c-3 6 -3 11 1 15c21 29 44 54 80 65c7 2 14 2 17 2c24 0 42 -5 58 -17c13 -9 26 -18 39 -24
c24 -12 41 -8 59 13c22 24 45 21 59 -9z" />
    <glyph glyph-name="eacute" unicode="&#xe9;" horiz-adv-x="672" 
d="M374 944c20 -19 23 -28 11 -46c-4 -5 -7 -9 -12 -13c-24 -25 -50 -49 -75 -73c-16 -14 -28 -12 -45 7c-15 16 -15 27 -1 42c14 14 27 28 41 41h1c13 14 27 28 41 41c16 15 23 14 39 1z" />
    <glyph glyph-name="ecircumflex" unicode="&#xea;" horiz-adv-x="672" 
d="M335 870c6 2 17 -23 26 -35c5 -8 11 -14 21 -14c8 0 27 -1 31 7c5 8 -2 13 -6 19c-17 26 -38 48 -53 76c-2 4 -6 9 -10 13c-6 7 -13 7 -21 0c-1 -3 -4 -5 -6 -8c-19 -27 -38 -55 -56 -84c-2 -2 -4 -6 -5 -9c-3 -6 -1 -10 4 -13c12 -5 38 -1 46 10l17 26c5 6 6 10 12 12z
" />
    <glyph glyph-name="edieresis" unicode="&#xeb;" horiz-adv-x="672" 
d="M387 883c-1 29 24 58 51 55c41 -3 64 -20 65 -59c0 -35 -21 -55 -56 -55s-59 24 -60 59zM287 879c-1 -31 -32 -59 -63 -59c-32 0 -58 27 -58 59c1 34 27 60 58 59c33 0 63 -30 63 -59z" />
    <glyph glyph-name="egrave" unicode="&#xe8;" horiz-adv-x="672" 
d="M418 821c-19 -20 -28 -23 -46 -11c-5 4 -9 7 -13 12c-25 24 -49 50 -73 75c-14 16 -12 28 7 45c16 15 27 15 42 1c14 -14 28 -27 41 -41v-1c14 -13 28 -27 41 -41c15 -16 14 -23 1 -39z" />
    <glyph glyph-name="ntilde" unicode="&#xf1;" horiz-adv-x="819" 
d="M594 881c6 -11 2 -20 -6 -27c-16 -17 -33 -34 -55 -45c-31 -17 -63 -16 -93 4c-12 7 -22 14 -32 21c-20 13 -38 12 -55 -6c-2 -2 -4 -5 -6 -8c-24 -29 -53 -14 -66 16c-3 6 -3 11 1 15c21 29 44 54 80 65c7 2 14 2 17 2c24 0 42 -5 58 -17c13 -9 26 -18 39 -24
c24 -12 41 -8 59 13c22 24 45 21 59 -9z" />
    <glyph glyph-name="oacute" unicode="&#xf3;" horiz-adv-x="947" 
d="M513 945c20 -19 23 -28 11 -46c-4 -5 -7 -9 -12 -13c-24 -25 -50 -49 -75 -73c-16 -14 -28 -12 -45 7c-15 16 -15 27 -1 42c14 14 27 28 41 41h1c13 14 27 28 41 41c16 15 23 14 39 1z" />
    <glyph glyph-name="ocircumflex" unicode="&#xf4;" horiz-adv-x="947" 
d="M474 871c6 2 17 -23 26 -35c5 -8 11 -14 21 -14c8 0 27 -1 31 7c5 8 -2 13 -6 19c-17 26 -38 48 -53 76c-2 4 -6 9 -10 13c-6 7 -13 7 -21 0c-1 -3 -4 -5 -6 -8c-19 -27 -38 -55 -56 -84c-2 -2 -4 -6 -5 -9c-3 -6 -1 -10 4 -13c12 -5 38 -1 46 10l17 26c5 6 6 10 12 12z
" />
    <glyph glyph-name="odieresis" unicode="&#xf6;" horiz-adv-x="947" 
d="M526 884c-1 29 24 58 51 55c41 -3 64 -20 65 -59c0 -35 -21 -55 -56 -55s-59 24 -60 59zM426 880c-1 -31 -32 -59 -63 -59c-32 0 -58 27 -58 59c1 34 27 60 58 59c33 0 63 -30 63 -59z" />
    <glyph glyph-name="ograve" unicode="&#xf2;" horiz-adv-x="947" 
d="M557 822c-19 -20 -28 -23 -46 -11c-5 4 -9 7 -13 12c-25 24 -49 50 -73 75c-14 16 -12 28 7 45c16 15 27 15 42 1c14 -14 28 -27 41 -41v-1c14 -13 28 -27 41 -41c15 -16 14 -23 1 -39z" />
    <glyph glyph-name="otilde" unicode="&#xf5;" horiz-adv-x="947" 
d="M629 909c6 -11 2 -20 -6 -27c-16 -17 -33 -34 -55 -45c-31 -17 -63 -16 -93 4c-12 7 -22 14 -32 21c-20 13 -38 12 -55 -6c-2 -2 -4 -5 -6 -8c-24 -29 -53 -14 -66 16c-3 6 -3 11 1 15c21 29 44 54 80 65c7 2 14 2 17 2c24 0 42 -5 58 -17c13 -9 26 -18 39 -24
c24 -12 41 -8 59 13c22 24 45 21 59 -9z" />
    <glyph glyph-name="uacute" unicode="&#xfa;" horiz-adv-x="776" 
d="M427 917c20 -19 23 -28 11 -46c-4 -5 -7 -9 -12 -13c-24 -25 -50 -49 -75 -73c-16 -14 -28 -12 -45 7c-15 16 -15 27 -1 42c14 14 27 28 41 41h1c13 14 27 28 41 41c16 15 23 14 39 1z" />
    <glyph glyph-name="ucircumflex" unicode="&#xfb;" horiz-adv-x="776" 
d="M388 843c6 2 17 -23 26 -35c5 -8 11 -14 21 -14c8 0 27 -1 31 7c5 8 -2 13 -6 19c-17 26 -38 48 -53 76c-2 4 -6 9 -10 13c-6 7 -13 7 -21 0c-1 -3 -4 -5 -6 -8c-19 -27 -38 -55 -56 -84c-2 -2 -4 -6 -5 -9c-3 -6 -1 -10 4 -13c12 -5 38 -1 46 10l17 26c5 6 6 10 12 12z
" />
    <glyph glyph-name="udieresis" unicode="&#xfc;" horiz-adv-x="776" 
d="M440 856c-1 29 24 58 51 55c41 -3 64 -20 65 -59c0 -35 -21 -55 -56 -55s-59 24 -60 59zM340 852c-1 -31 -32 -59 -63 -59c-32 0 -58 27 -58 59c1 34 27 60 58 59c33 0 63 -30 63 -59z" />
    <glyph glyph-name="ugrave" unicode="&#xf9;" horiz-adv-x="776" 
d="M471 794c-19 -20 -28 -23 -46 -11c-5 4 -9 7 -13 12c-25 24 -49 50 -73 75c-14 16 -12 28 7 45c16 15 27 15 42 1c14 -14 28 -27 41 -41v-1c14 -13 28 -27 41 -41c15 -16 14 -23 1 -39z" />
    <glyph glyph-name="wacute" unicode="&#x1e83;" horiz-adv-x="1042" 
d="M560 917c20 -19 23 -28 11 -46c-4 -5 -7 -9 -12 -13c-24 -25 -50 -49 -75 -73c-16 -14 -28 -12 -45 7c-15 16 -15 27 -1 42c14 14 27 28 41 41h1c13 14 27 28 41 41c16 15 23 14 39 1z" />
    <glyph glyph-name="wcircumflex" unicode="&#x175;" horiz-adv-x="1042" 
d="M521 843c6 2 17 -23 26 -35c5 -8 11 -14 21 -14c8 0 27 -1 31 7c5 8 -2 13 -6 19c-17 26 -38 48 -53 76c-2 4 -6 9 -10 13c-6 7 -13 7 -21 0c-1 -3 -4 -5 -6 -8c-19 -27 -38 -55 -56 -84c-2 -2 -4 -6 -5 -9c-3 -6 -1 -10 4 -13c12 -5 38 -1 46 10l17 26c5 6 6 10 12 12z
" />
    <glyph glyph-name="wdieresis" unicode="&#x1e85;" horiz-adv-x="1042" 
d="M573 856c-1 29 24 58 51 55c41 -3 64 -20 65 -59c0 -35 -21 -55 -56 -55s-59 24 -60 59zM473 852c-1 -31 -32 -59 -63 -59c-32 0 -58 27 -58 59c1 34 27 60 58 59c33 0 63 -30 63 -59z" />
    <glyph glyph-name="wgrave" unicode="&#x1e81;" horiz-adv-x="1042" 
d="M604 794c-19 -20 -28 -23 -46 -11c-5 4 -9 7 -13 12c-25 24 -49 50 -73 75c-14 16 -12 28 7 45c16 15 27 15 42 1c14 -14 28 -27 41 -41v-1c14 -13 28 -27 41 -41c15 -16 14 -23 1 -39z" />
    <glyph glyph-name="yacute" unicode="&#xfd;" horiz-adv-x="798" 
d="M438 917c20 -19 23 -28 11 -46c-4 -5 -7 -9 -12 -13c-24 -25 -50 -49 -75 -73c-16 -14 -28 -12 -45 7c-15 16 -15 27 -1 42c14 14 27 28 41 41h1c13 14 27 28 41 41c16 15 23 14 39 1z" />
    <glyph glyph-name="ycircumflex" unicode="&#x177;" horiz-adv-x="798" 
d="M399 843c6 2 17 -23 26 -35c5 -8 11 -14 21 -14c8 0 27 -1 31 7c5 8 -2 13 -6 19c-17 26 -38 48 -53 76c-2 4 -6 9 -10 13c-6 7 -13 7 -21 0c-1 -3 -4 -5 -6 -8c-19 -27 -38 -55 -56 -84c-2 -2 -4 -6 -5 -9c-3 -6 -1 -10 4 -13c12 -5 38 -1 46 10l17 26c5 6 6 10 12 12z
" />
    <glyph glyph-name="ydieresis" unicode="&#xff;" horiz-adv-x="798" 
d="M451 856c-1 29 24 58 51 55c41 -3 64 -20 65 -59c0 -35 -21 -55 -56 -55s-59 24 -60 59zM351 852c-1 -31 -32 -59 -63 -59c-32 0 -58 27 -58 59c1 34 27 60 58 59c33 0 63 -30 63 -59z" />
    <glyph glyph-name="ygrave" unicode="&#x1ef3;" horiz-adv-x="798" 
d="M482 794c-19 -20 -28 -23 -46 -11c-5 4 -9 7 -13 12c-25 24 -49 50 -73 75c-14 16 -12 28 7 45c16 15 27 15 42 1c14 -14 28 -27 41 -41v-1c14 -13 28 -27 41 -41c15 -16 14 -23 1 -39z" />
    <glyph glyph-name="zero" unicode="0" horiz-adv-x="775" 
d="M661 333c5 -53 -5 -128 -35 -201c-48 -118 -177 -149 -259 -136c-132 21 -209 99 -238 226c-25 113 -24 226 12 338c22 69 65 124 121 166c91 67 217 44 283 -11c64 -53 102 -121 107 -207c3 -50 7 -100 9 -175zM499 201c32 77 31 156 22 236c-5 43 -12 85 -31 124
c-18 39 -44 66 -91 67c-48 1 -77 -22 -98 -62c-33 -62 -36 -128 -36 -209c0 -20 -1 -54 5 -88c3 -22 9 -44 16 -65c18 -53 56 -80 110 -80c48 0 81 27 103 77z" />
    <glyph glyph-name="one" unicode="1" horiz-adv-x="483" 
d="M229 507c0 11 4 23 -4 34c-13 3 -22 -7 -32 -12c-48 -23 -55 -20 -73 31l-3 9c-9 18 -6 34 10 48c40 37 80 74 120 112c26 24 58 21 89 19c13 -1 21 -11 23 -24c2 -14 3 -29 3 -44c-1 -190 13 -379 7 -569c-1 -21 0 -42 -6 -62c0 -3 0 -6 -1 -9c-10 -39 -42 -30 -69 -31
c-44 -1 -51 3 -58 32c-7 26 -8 53 -6 79c7 62 5 124 2 187c-4 66 -1 133 -2 200z" />
    <glyph glyph-name="two" unicode="2" horiz-adv-x="714" 
d="M383 193c-20 -19 -40 -38 -57 -67c43 -6 79 -4 116 -3s74 2 111 2c31 -1 38 -10 38 -42c-1 -78 -2 -79 -79 -82c-114 -4 -229 1 -343 2c-52 1 -71 36 -47 82c7 14 17 24 28 35c72 71 132 152 192 233c25 35 51 69 77 103c16 21 27 43 32 68c9 45 -17 83 -62 92
c-48 10 -92 2 -131 -27c-8 -7 -16 -14 -24 -20c-26 -17 -36 -19 -60 0c-64 49 -63 66 -7 117c49 43 109 68 173 76c156 20 286 -119 257 -273c-6 -36 -25 -66 -45 -96c-51 -71 -107 -138 -169 -200z" />
    <glyph glyph-name="three" unicode="3" horiz-adv-x="701" 
d="M160 690c52 38 108 68 174 72c37 -2 74 -7 108 -22c134 -55 169 -211 73 -318c-25 -29 -25 -36 3 -62c103 -95 92 -229 -22 -316c-78 -60 -162 -57 -249 -30c-46 14 -86 39 -119 74c-21 23 -22 35 0 57c29 31 49 54 101 12c43 -34 93 -45 147 -33c38 9 72 44 78 82
c4 24 -5 44 -21 61c-30 30 -67 44 -108 45c-28 1 -57 1 -84 7c-27 7 -35 16 -36 43c-1 12 0 24 1 35c4 30 12 38 43 40c34 2 69 2 102 10c28 7 53 18 68 46c34 64 -7 134 -83 140c-41 3 -74 -17 -104 -42c-33 -27 -33 -26 -68 -2c-59 39 -52 65 -4 101z" />
    <glyph glyph-name="four" unicode="4" horiz-adv-x="835" 
d="M656 277c56 -1 81 -40 57 -92c-6 -15 -18 -22 -34 -24c-40 -3 -61 -6 -67 -16c-2 -3 -2 -18 -1 -47c0 -9 0 -14 1 -22c1 -39 0 -48 -6 -56c-3 -5 -8 -8 -14 -11c-33 -13 -67 -9 -99 8c-16 9 -18 27 -20 43c-2 20 -2 41 -2 62c1 20 -8 30 -28 31c-43 2 -86 6 -129 7
c-49 2 -98 2 -147 4s-54 10 -55 59c0 27 6 50 23 70l307 381c19 23 39 45 59 67c24 26 55 18 83 13c27 -6 29 -32 30 -54c1 -25 0 -51 0 -75c-9 -104 -8 -208 -9 -312c0 -36 1 -36 38 -36h13zM489 325c5 60 2 121 -1 182c0 5 0 12 -12 15c-63 -78 -128 -158 -197 -244
c58 -10 109 0 158 -1c42 -1 49 6 52 48z" />
    <glyph glyph-name="five" unicode="5" horiz-adv-x="715" 
d="M321 749c62 0 109 0 140 3c10 0 32 2 46 -11c4 -4 7 -9 10 -16c9 -29 11 -59 -1 -87c-7 -16 -25 -14 -40 -14c-53 -1 -107 -1 -160 -1c-49 0 -56 -7 -59 -56c-6 -88 -2 -76 73 -80c24 -2 48 -3 71 -6c158 -20 219 -119 197 -264c-22 -150 -139 -229 -300 -219
c-65 4 -122 26 -166 76c-27 30 -27 56 2 85c7 7 16 14 24 19c28 18 39 17 63 -5c22 -21 47 -36 76 -44c47 -13 90 -9 130 23c59 48 49 137 17 178c-19 23 -43 34 -73 36c-54 4 -107 0 -160 0c-15 0 -30 -1 -44 4c-26 9 -37 21 -38 48c-2 78 -5 155 -6 232c-1 12 0 24 3 35
c5 27 10 43 20 52c15 12 33 12 57 11c27 0 67 -1 118 1z" />
    <glyph glyph-name="six" unicode="6" horiz-adv-x="733" 
d="M616 307c16 -86 -8 -157 -58 -225c-40 -54 -93 -79 -160 -82c-72 -4 -139 8 -195 57c-52 46 -85 102 -89 173c-3 56 -3 113 5 168c15 101 72 178 144 245c54 51 120 86 185 121c30 15 41 11 57 -19c6 -11 9 -22 14 -33c10 -20 1 -34 -15 -45c-9 -6 -18 -10 -28 -15
c-72 -35 -127 -91 -181 -149c-9 -9 -18 -20 -22 -40c37 16 71 27 106 30c111 9 216 -77 237 -186zM497 253c4 70 -55 128 -124 130s-133 -52 -128 -119c5 -75 40 -137 140 -139c74 -6 107 61 112 128z" />
    <glyph glyph-name="seven" unicode="7" horiz-adv-x="718" 
d="M164 741l53 3h110c78 0 106 -1 145 2c8 0 17 1 34 1c21 1 42 3 62 -2c34 -9 45 -28 33 -60c-10 -26 -23 -51 -37 -76c-56 -100 -100 -205 -148 -308c-36 -80 -71 -160 -111 -238c-27 -52 -53 -63 -108 -47c-29 8 -39 25 -27 53c16 40 35 79 55 117c42 83 86 165 121 252
c21 53 51 101 73 152c18 42 19 43 -29 42c-61 -1 -122 -4 -182 -7c-11 0 -21 -1 -32 -1c-53 0 -65 12 -64 66c1 45 5 49 52 51z" />
    <glyph glyph-name="eight" unicode="8" horiz-adv-x="729" 
d="M584 301c54 -77 39 -177 -34 -235c-53 -43 -114 -66 -175 -63c-49 5 -102 6 -151 32c-50 27 -83 68 -102 119c-25 68 -3 136 58 187c50 42 50 42 9 92c-15 18 -29 37 -39 59c-41 81 -7 186 75 223c81 36 165 44 251 16c83 -27 151 -135 119 -229c-12 -36 -36 -61 -61 -87
c-26 -29 -27 -30 1 -56c19 -18 34 -38 49 -58zM261 543c-5 -46 56 -98 112 -98c53 -1 97 44 97 100c1 56 -42 96 -104 97c-62 0 -99 -43 -105 -99zM411 109c52 12 93 81 77 127s-79 87 -129 86c-42 0 -67 -28 -91 -55c-43 -50 -22 -127 38 -150c21 -8 43 -11 66 -13
c13 2 26 2 39 5z" />
    <glyph glyph-name="nine" unicode="9" horiz-adv-x="735" 
d="M587 625c25 -59 37 -118 36 -177c-6 -124 -52 -229 -146 -312c-44 -39 -90 -74 -140 -103c-15 -9 -31 -16 -48 -22c-49 -18 -81 6 -80 58c0 14 5 27 17 34c11 7 23 14 36 19c77 28 136 82 190 142c5 5 9 11 13 18c8 13 2 20 -12 19c-13 -1 -26 -6 -39 -8
c-84 -17 -162 -4 -233 45c-30 21 -50 50 -60 86c-37 140 38 301 208 337c115 23 212 -28 258 -136zM431 403c36 17 61 42 59 95c0 69 -48 129 -118 141c-36 6 -67 -3 -93 -31c-45 -50 -52 -121 -14 -171c33 -44 112 -61 166 -34z" />
    <glyph glyph-name="period" unicode="." horiz-adv-x="394" 
d="M194 192c52 0 87 -35 87 -90c0 -50 -32 -82 -83 -83c-47 0 -87 34 -86 77c1 54 28 97 82 96z" />
    <glyph glyph-name="comma" unicode="," horiz-adv-x="415" 
d="M300 113c2 -16 2 -33 3 -49c-2 -81 -27 -151 -92 -203c-8 -7 -17 -13 -26 -17c-17 -9 -31 -2 -43 12c-12 13 -15 29 -3 44c8 10 18 20 27 29c18 18 31 39 40 63c6 16 1 26 -15 31l-29 9c-37 14 -53 42 -49 80c4 46 45 81 95 82c43 1 84 -35 92 -81z" />
    <glyph glyph-name="colon" unicode=":" horiz-adv-x="391" 
d="M190 384c-40 -1 -80 34 -77 70c4 58 29 91 82 91c49 0 77 -27 78 -76c0 -49 -34 -84 -83 -85zM196 244c42 -1 83 -44 82 -88c0 -44 -37 -80 -83 -79c-47 0 -84 36 -83 80c1 45 42 88 84 87z" />
    <glyph glyph-name="semicolon" unicode=";" horiz-adv-x="389" 
d="M187 386c-48 1 -75 30 -74 79s31 80 76 80c43 0 76 -36 75 -82c-1 -48 -31 -79 -77 -77zM272 157c2 -16 3 -32 4 -49c1 -71 -32 -128 -81 -176c-13 -12 -29 -28 -50 -11c-24 17 -27 37 -7 59c20 21 38 42 50 68c10 24 7 29 -19 37c-47 14 -60 31 -57 75c3 37 35 75 67 80
c30 4 71 -21 85 -53c4 -10 7 -20 8 -30z" />
    <glyph glyph-name="exclam" unicode="!" horiz-adv-x="406" 
d="M158 331c-6 37 -12 75 -17 113c-10 75 -19 150 -27 224c-7 59 6 75 65 81c23 3 47 0 70 -1c26 -2 38 -16 40 -39c3 -25 3 -51 5 -76c-2 -69 -16 -138 -25 -206c-5 -37 -9 -74 -17 -110c-7 -34 -42 -50 -71 -32c-17 10 -20 28 -23 46zM206 156c53 1 86 -31 87 -85
c2 -54 -36 -96 -86 -98c-53 -2 -87 31 -87 84c-1 54 38 99 86 99z" />
    <glyph glyph-name="question" unicode="?" horiz-adv-x="644" 
d="M485 733c62 -63 63 -157 1 -219c-29 -28 -58 -55 -88 -82c-18 -17 -28 -36 -27 -62c0 -42 -9 -48 -51 -50c-66 -4 -79 11 -69 76c7 48 30 86 69 115c19 14 38 28 55 45c25 24 30 53 16 85c-12 31 -37 38 -67 41c-48 4 -82 -20 -117 -46c-31 -23 -51 -21 -77 7
c-24 25 -25 50 1 73c57 50 120 78 203 81c62 -4 109 -22 151 -64zM309 196c37 0 86 -24 83 -88c1 -56 -28 -85 -83 -86c-50 0 -85 30 -87 75c-2 53 38 99 87 99z" />
    <glyph glyph-name="asterisk" unicode="*" horiz-adv-x="533" 
d="M394 545c26 -20 31 -40 15 -64c-15 -24 -37 -27 -65 -9c-10 6 -17 16 -31 20c-7 -17 -3 -33 -5 -49c-3 -27 -18 -40 -44 -40c-23 1 -34 13 -36 41c-1 16 0 32 0 50c-22 3 -31 -16 -46 -24c-26 -13 -40 -13 -56 4c-19 21 -18 43 4 61c16 15 39 21 53 41
c-19 13 -38 25 -55 39c-20 17 -21 33 -5 54c15 20 26 23 49 11c16 -8 30 -18 49 -29c6 17 0 33 1 48c1 30 11 42 38 44c29 3 44 -9 48 -39c1 -9 0 -18 1 -27c0 -7 -2 -15 6 -23c14 10 27 21 42 30c21 13 36 9 53 -13c15 -20 14 -33 -2 -51s-41 -24 -60 -43
c12 -16 31 -21 46 -32z" />
    <glyph glyph-name="numbersign" unicode="#" horiz-adv-x="735" 
d="M582 496c34 -3 46 -18 39 -49c-3 -16 -13 -26 -29 -30c-11 -2 -23 -4 -35 -4c-42 -1 -44 -2 -52 -43c-4 -18 -7 -35 -8 -53c-3 -32 4 -39 36 -42c7 0 15 1 22 -1c24 -4 37 -17 37 -36c1 -22 -12 -41 -33 -47c-3 -1 -6 -1 -9 -2c-58 -10 -59 -9 -66 -69
c-4 -25 -4 -50 -6 -75c-1 -12 -2 -24 -10 -34c-13 -15 -30 -18 -48 -14c-20 6 -24 21 -23 39c2 38 11 76 10 115c-2 35 -5 40 -41 42c-80 5 -92 -5 -99 -85c-2 -18 -2 -36 -3 -54c-1 -16 -7 -32 -18 -44c-10 -12 -23 -13 -37 -8c-12 4 -18 14 -17 28l6 53c1 19 4 38 4 57
c-1 33 -8 40 -40 48l-26 6c-17 5 -25 16 -24 33s8 29 25 33c11 3 23 4 35 5c46 6 55 14 57 62c1 12 1 24 0 36c-3 35 -6 38 -41 46c-36 9 -49 21 -45 44c3 24 18 35 52 37c43 2 46 5 53 48c8 49 16 99 18 150c0 15 2 29 11 42s22 20 38 16c15 -4 27 -13 28 -30
c0 -20 0 -39 -2 -58c-4 -38 -10 -77 -13 -115c-5 -46 1 -51 46 -54c6 0 12 -1 18 -1c54 -3 65 7 70 60c4 41 11 82 16 123c2 17 7 32 15 47c8 17 22 28 43 23c19 -5 22 -23 21 -39c-3 -30 -6 -59 -10 -89c-2 -20 -6 -41 -9 -61c-6 -46 -1 -51 44 -56zM448 371
c2 38 -8 48 -48 53c-13 2 -27 3 -40 2c-36 -2 -52 -17 -58 -53c-2 -16 -2 -33 -3 -38c-2 -77 5 -83 73 -78c9 0 18 0 27 2c17 5 31 14 37 34c8 25 10 52 12 78z" />
    <glyph glyph-name="slash" unicode="/" horiz-adv-x="679" 
d="M549 742c15 -6 21 -17 15 -32c-5 -14 -11 -27 -18 -40c-109 -195 -209 -395 -312 -593c-10 -20 -22 -39 -33 -58c-10 -17 -26 -24 -45 -23c-43 0 -54 15 -35 55c17 39 37 78 58 115c84 148 155 303 231 455c15 31 30 61 47 91c15 27 64 42 92 30z" />
    <glyph glyph-name="parenleft" unicode="(" horiz-adv-x="530" 
d="M367 32c34 -14 46 -39 44 -74c-2 -33 -20 -50 -52 -44c-77 16 -141 53 -181 123c-44 76 -68 157 -66 246c2 80 -2 160 22 238c16 51 32 102 67 144c49 59 115 82 186 93c22 3 30 -9 30 -39c0 -46 -10 -61 -53 -74c-36 -11 -60 -33 -76 -65c-29 -59 -50 -120 -49 -187
c0 -78 -3 -157 20 -234c17 -59 50 -104 108 -127z" />
    <glyph glyph-name="parenright" unicode=")" horiz-adv-x="532" 
d="M418 373c3 -55 6 -138 -27 -233c-12 -34 -42 -133 -122 -184c-33 -21 -69 -33 -107 -40c-31 -5 -44 6 -47 38c-5 49 0 58 48 75c73 27 100 89 112 158c13 78 15 156 10 235c-3 54 -21 104 -47 152c-19 35 -53 54 -89 70c-13 6 -31 8 -33 25c-4 24 -8 49 3 70
c9 18 30 18 48 16c50 -5 94 -23 132 -57c78 -72 101 -191 110 -236c1 -8 7 -43 9 -89z" />
    <glyph glyph-name="braceleft" unicode="{" horiz-adv-x="620" 
d="M467 -124c35 -13 46 -33 37 -69c-6 -25 -26 -40 -58 -36c-76 9 -142 38 -193 97c-35 40 -48 88 -48 140c-1 46 -1 92 -2 138c-3 50 -16 92 -66 117c-34 17 -33 79 2 92c65 24 67 76 61 128c-7 54 -1 107 7 159c19 116 92 182 216 205c9 2 18 2 27 3c44 9 58 -3 58 -49
c-1 -35 -9 -49 -44 -56c-79 -18 -117 -47 -135 -170c-4 -27 -2 -56 -2 -84c-1 -55 -13 -105 -50 -148c-23 -28 -23 -31 2 -56c33 -34 45 -76 47 -121c2 -32 2 -63 -1 -94c-9 -95 19 -133 112 -186c9 -5 20 -6 30 -10z" />
    <glyph glyph-name="braceright" unicode="}" horiz-adv-x="623" 
d="M481 358c36 -17 39 -75 10 -103c-5 -5 -11 -10 -18 -13c-42 -15 -52 -46 -49 -88c4 -54 5 -110 -5 -164c-27 -141 -124 -214 -258 -218c-27 -1 -41 10 -47 31c-7 28 2 55 24 66c15 8 31 12 46 17c76 28 108 73 111 154c1 33 9 65 5 94c0 21 -3 39 -2 57c2 32 12 59 36 83
c30 30 29 33 2 66c-30 37 -39 80 -41 124c-2 43 -4 87 0 129c5 53 -41 123 -93 138l-55 18c-31 10 -39 28 -31 68c7 35 17 44 51 40c52 -7 103 -15 148 -46c73 -49 106 -122 110 -207c3 -49 3 -98 3 -147c0 -43 9 -77 53 -99z" />
    <glyph glyph-name="hyphen" unicode="-" horiz-adv-x="528" 
d="M415 374c2 -48 -6 -62 -43 -69c-10 -2 -20 -3 -31 -3c-60 1 -121 2 -181 4c-38 2 -50 19 -48 64c2 38 15 52 50 53c34 1 68 0 102 0v-1c34 0 69 2 103 0c37 -1 46 -11 48 -48z" />
    <glyph glyph-name="uni00AD" unicode="&#xad;" horiz-adv-x="0" 
 />
    <glyph glyph-name="quotedbl" unicode="&#x22;" horiz-adv-x="579" 
d="M222 611c51 -18 67 -58 41 -105c-15 -27 -38 -41 -70 -37s-60 13 -74 47c-8 20 -7 41 -7 62c2 74 27 139 82 191c21 20 34 22 53 6c18 -14 20 -26 5 -51c-14 -24 -32 -46 -46 -71c-17 -29 -16 -31 16 -42zM408 614c42 -13 59 -32 58 -67c0 -32 -25 -64 -56 -72
c-32 -9 -74 8 -92 39c-13 23 -20 50 -15 77c12 69 43 129 93 178c14 14 26 19 42 4c16 -16 19 -29 5 -47c-11 -15 -25 -29 -37 -44c-8 -9 -14 -19 -18 -30c-9 -25 -7 -30 20 -38z" />
    <glyph glyph-name="quotedbl.alt1" horiz-adv-x="588" 
d="M457 751c15 -25 20 -52 18 -78c0 -77 -29 -138 -81 -189c-26 -25 -42 -27 -60 -7c-18 18 -16 33 6 57c17 19 35 37 45 61c9 23 5 30 -19 38c-40 13 -59 34 -61 67c-1 33 27 75 59 87c30 11 74 -6 93 -36zM183 787c41 5 74 -17 87 -59c6 -20 11 -40 9 -57
c-1 -78 -29 -139 -83 -189c-24 -21 -37 -22 -54 -6c-19 19 -19 34 1 58c17 21 35 41 47 65c12 23 9 27 -17 36c-41 14 -65 46 -61 82c4 35 36 67 71 70z" />
    <glyph glyph-name="CR" unicode="&#xd;" horiz-adv-x="0" 
 />
    <glyph glyph-name=".null" horiz-adv-x="0" 
 />
    <glyph glyph-name="space" unicode=" " horiz-adv-x="322" 
 />
    <glyph glyph-name="uni00A0" unicode="&#xa0;" horiz-adv-x="322" 
 />
    <glyph glyph-name="at" unicode="@" horiz-adv-x="1202" 
d="M1068 507c34 -119 30 -237 -24 -351c-50 -103 -118 -135 -230 -132c-30 1 -55 15 -74 37c-16 17 -26 21 -47 4c-121 -95 -293 -24 -315 128c-5 34 -6 69 -1 102c14 85 59 149 136 186c54 25 107 18 155 -20c7 -5 12 -14 24 -14c10 10 13 28 31 33c39 10 65 -5 70 -44
c3 -28 2 -57 2 -85c1 -55 0 -110 9 -164c7 -49 40 -65 83 -39c19 12 33 29 42 50c52 115 51 228 -13 337c-50 87 -133 127 -228 148c-92 21 -177 -2 -258 -40c-49 -23 -88 -60 -117 -107c-69 -110 -87 -230 -57 -355c25 -102 92 -177 179 -235c15 -9 31 -18 45 -29
c32 -26 38 -55 18 -90c-16 -26 -47 -36 -82 -22c-72 30 -132 77 -180 136c-53 64 -97 136 -111 220c-22 129 -20 257 40 378c59 122 161 195 284 242c71 28 144 33 219 22c33 -5 67 -10 100 -18c107 -25 186 -90 252 -173c24 -31 38 -68 48 -105zM666 210c7 26 10 53 10 79
c1 47 -32 82 -77 87c-9 1 -35 5 -61 -12c-23 -15 -32 -37 -36 -48c-7 -18 -8 -32 -8 -50c0 -17 1 -52 19 -89c11 -25 31 -37 60 -37c50 0 81 21 93 70z" />
    <glyph glyph-name="ampersand" unicode="&#x26;" horiz-adv-x="850" 
d="M718 98c24 -24 26 -40 7 -66c-37 -51 -72 -55 -112 -9c-9 10 -18 19 -28 29c-23 23 -27 24 -50 1c-35 -35 -78 -54 -125 -64c-51 -12 -103 -13 -153 4c-154 52 -183 206 -98 323c17 23 40 40 60 59c24 22 24 30 5 56c-6 9 -13 16 -20 25c-85 111 -38 239 85 290
c78 32 155 20 219 -40c58 -56 68 -139 26 -208c-21 -34 -44 -67 -74 -94c-24 -23 -24 -28 -3 -52c28 -31 62 -57 93 -97c17 43 20 78 26 113c3 19 1 46 26 52c26 6 53 4 78 -9c14 -8 15 -23 14 -39c-3 -41 -13 -79 -29 -116c-5 -12 -9 -25 -15 -37c-12 -26 -7 -49 14 -68
c18 -18 37 -35 54 -53zM325 649c-29 -13 -41 -37 -38 -67c-3 -33 15 -57 30 -82c19 -31 45 -36 74 -15c22 16 35 40 47 64c17 33 13 64 -9 86s-70 29 -104 14zM461 134c11 14 16 29 3 44c-39 43 -78 85 -118 127c-10 10 -23 15 -36 6c-39 -29 -68 -66 -73 -117
c-1 -15 5 -29 11 -42c35 -66 167 -77 213 -18z" />
    <glyph glyph-name="bar" unicode="|" horiz-adv-x="306" 
d="M189 428c-2 -77 -1 -154 -1 -231c0 -51 1 -101 0 -152c-2 -63 -4 -127 -1 -191c1 -15 0 -30 -2 -44c-3 -15 -12 -24 -27 -26c-15 -1 -26 5 -33 18c-9 15 -11 31 -11 47c0 52 -1 104 1 156c2 65 1 131 0 196c-8 104 3 207 -1 311c-4 111 -1 223 -1 334c0 39 12 55 36 55
s37 -18 38 -55c1 -21 0 -42 -1 -62c-3 -81 -3 -161 6 -240c4 -39 -3 -77 -3 -116z" />
    <glyph glyph-name="dollar" unicode="$" horiz-adv-x="718" 
d="M514 396c75 -50 101 -121 89 -208c-7 -45 -33 -79 -68 -106c-34 -27 -73 -47 -116 -53c-24 -4 -32 -16 -31 -38c1 -17 1 -33 0 -49c-2 -25 -17 -40 -35 -39c-21 2 -31 17 -33 36s-2 39 -1 58c1 14 -5 23 -19 24c-53 7 -97 36 -141 64c-10 6 -20 13 -28 21
c-23 22 -25 41 -7 67c4 6 9 12 14 17c28 29 44 32 77 9c33 -21 66 -40 110 -45c0 60 1 115 -4 169c-2 23 -11 34 -31 42c-29 12 -56 27 -81 46c-66 49 -101 114 -90 196c13 89 66 150 153 178c25 7 48 10 49 44c1 13 17 20 32 19c12 -1 25 -9 25 -21c2 -35 27 -37 51 -43
c45 -10 88 -26 127 -52c17 -12 24 -25 13 -45c-7 -12 -11 -24 -19 -35c-19 -29 -41 -36 -72 -22c-15 6 -29 16 -43 23c-13 6 -25 18 -47 9c0 -57 1 -116 0 -175c0 -17 10 -23 23 -29c36 -18 69 -40 103 -62zM314 517v153c-46 -13 -70 -40 -69 -75c1 -39 28 -69 69 -78z
M389 148c40 9 78 48 78 77c0 32 -34 69 -80 82c7 -54 -1 -106 2 -159z" />
    <glyph glyph-name="plus" unicode="+" horiz-adv-x="700" 
d="M521 463c51 4 80 -37 60 -85c-7 -16 -19 -23 -35 -23c-18 -1 -35 0 -53 0v-1h-53c-23 1 -33 -10 -33 -32c0 -30 1 -59 0 -89c-1 -52 -46 -78 -92 -54c-18 10 -21 28 -21 46c-1 30 1 59 0 89c-1 36 -4 37 -38 41c-31 3 -62 -1 -93 -2c-40 0 -49 9 -51 45c-2 46 9 61 49 62
c28 1 57 -1 85 0c36 0 48 11 44 48c-3 26 -6 53 -6 79c1 41 12 51 54 52c47 2 61 -7 64 -47c2 -33 6 -65 4 -98c-2 -23 8 -28 26 -30c29 -4 59 -4 89 -1z" />
    <glyph glyph-name="equal" unicode="=" horiz-adv-x="627" 
d="M458 560c46 -5 69 -47 50 -91c-9 -20 -25 -23 -44 -23h-142c-52 2 -104 -2 -156 4c-45 4 -67 51 -44 90c12 21 32 20 51 19c36 -3 71 -7 107 -6c28 1 56 2 84 6c31 6 63 4 94 1zM454 341c44 0 53 -9 53 -52c-1 -51 -12 -64 -62 -64c-79 -1 -158 -1 -236 0
c-13 0 -27 1 -40 3c-52 6 -64 23 -54 74c6 29 15 38 45 38c51 1 101 0 152 0v1h142z" />
    <glyph glyph-name="greater" unicode="&#x3e;" horiz-adv-x="647" 
d="M499 373c46 -29 48 -61 1 -87c-104 -57 -203 -122 -306 -182c-19 -11 -40 -27 -62 -14c-21 14 -16 40 -18 62c-2 27 13 45 34 58c23 13 48 24 72 36c38 19 74 43 110 67c7 5 15 10 17 21c-22 24 -52 37 -80 53c-39 23 -78 43 -117 66s-51 93 -23 129c10 12 22 15 36 7
c15 -8 31 -16 45 -27c89 -67 183 -126 279 -182c4 -3 8 -5 12 -7z" />
    <glyph glyph-name="less" unicode="&#x3c;" horiz-adv-x="644" 
d="M479 203c49 -25 61 -52 49 -105c-5 -18 -14 -26 -32 -18s-35 16 -51 26c-52 32 -105 62 -161 86c-51 22 -97 57 -145 85c-35 20 -36 50 -4 75c25 18 53 32 78 50c82 56 168 107 252 158c46 28 59 21 62 -32c1 -5 0 -9 0 -15c6 -34 -11 -57 -40 -76
c-49 -31 -99 -59 -149 -87c-11 -6 -21 -12 -31 -18c-17 -9 -16 -19 0 -29c47 -31 94 -62 144 -87c10 -4 19 -9 28 -13z" />
    <glyph glyph-name="asciitilde" unicode="~" horiz-adv-x="739" 
d="M622 331c9 -18 3 -33 -9 -44c-28 -27 -55 -55 -89 -73c-52 -27 -103 -25 -152 6c-18 11 -34 24 -51 36c-32 20 -62 17 -88 -10c-4 -4 -8 -9 -12 -14c-38 -47 -85 -22 -106 25c-4 9 -4 18 2 26c34 45 71 88 128 105c12 3 24 3 29 4c39 -1 68 -10 94 -28
c21 -15 41 -29 64 -41c39 -19 65 -12 94 22c33 39 72 33 96 -14z" />
    <glyph glyph-name="asciicircum" unicode="^" horiz-adv-x="714" 
d="M578 482c12 -18 33 -34 19 -59c-14 -24 -40 -20 -64 -20c-30 1 -49 18 -65 41c-25 37 -51 73 -78 109c-9 13 -17 27 -34 33c-20 -13 -34 -33 -48 -52c-23 -33 -45 -66 -69 -99c-24 -34 -72 -46 -110 -28c-16 8 -21 20 -13 36c5 11 11 21 17 32c52 88 114 170 171 254
c6 9 13 17 20 24c21 21 41 22 62 2c12 -13 24 -27 33 -43c45 -81 107 -153 159 -230z" />
    <glyph glyph-name="uni0308" unicode="&#x308;" horiz-adv-x="0" 
d="M-407 858c-1 29 24 58 51 55c41 -3 64 -20 65 -59c0 -35 -21 -55 -56 -55s-59 24 -60 59zM-507 854c-1 -31 -32 -59 -63 -59c-32 0 -58 27 -58 59c1 34 27 60 58 59c33 0 63 -30 63 -59z" />
    <glyph glyph-name="uni0307" unicode="&#x307;" horiz-adv-x="0" 
d="M-507 858c-1 29 24 58 51 55c41 -3 64 -20 65 -59c0 -35 -21 -55 -56 -55s-59 24 -60 59z" />
    <glyph glyph-name="gravecomb" unicode="&#x300;" horiz-adv-x="0" 
d="M-370 794c-19 -20 -28 -23 -46 -11c-5 4 -9 7 -13 12c-25 24 -49 50 -73 75c-14 16 -12 28 7 45c16 15 27 15 42 1c14 -14 28 -27 41 -41v-1c14 -13 28 -27 41 -41c15 -16 14 -23 1 -39z" />
    <glyph glyph-name="acutecomb" unicode="&#x301;" horiz-adv-x="0" 
d="M-383 917c20 -19 23 -28 11 -46c-4 -5 -7 -9 -12 -13c-24 -25 -50 -49 -75 -73c-16 -14 -28 -12 -45 7c-15 16 -15 27 -1 42c14 14 27 28 41 41h1c13 14 27 28 41 41c16 15 23 14 39 1z" />
    <glyph glyph-name="uni0302" unicode="&#x302;" horiz-adv-x="0" 
d="M-448 843c6 2 17 -23 26 -35c5 -8 11 -14 21 -14c8 0 27 -1 31 7c5 8 -2 13 -6 19c-17 26 -38 48 -53 76c-2 4 -6 9 -10 13c-6 7 -13 7 -21 0c-1 -3 -4 -5 -6 -8c-19 -27 -38 -55 -56 -84c-2 -2 -4 -6 -5 -9c-3 -6 -1 -10 4 -13c12 -5 38 -1 46 10l17 26c5 6 6 10 12 12z
" />
    <glyph glyph-name="uni030C" unicode="&#x30c;" horiz-adv-x="0" 
d="M-157 843c-6 -2 -17 23 -26 35c-5 8 -11 14 -21 14c-8 0 -27 1 -31 -7c-5 -8 2 -13 6 -19c17 -26 38 -48 53 -76c2 -4 6 -9 10 -13c6 -7 13 -7 21 0c1 3 4 5 6 8c19 27 38 55 56 84c2 2 4 6 5 9c3 6 1 10 -4 13c-12 5 -38 1 -46 -10l-17 -26c-5 -6 -6 -10 -12 -12z" />
    <glyph glyph-name="uni030A" unicode="&#x30a;" horiz-adv-x="0" 
d="M-518 858c-2 34 28 69 61 65c49 -3 76 -24 78 -70c0 -42 -26 -66 -68 -66c-41 0 -70 29 -71 71zM-466 841c11 -10 23 -11 34 0c9 9 8 20 0 30c-12 10 -23 9 -36 -1c-7 -8 -6 -22 2 -29z" />
    <glyph glyph-name="tildecomb" unicode="&#x303;" horiz-adv-x="0" 
d="M-300 881c6 -11 2 -20 -6 -27c-16 -17 -33 -34 -55 -45c-31 -17 -63 -16 -93 4c-12 7 -22 14 -32 21c-20 13 -38 12 -55 -6c-2 -2 -4 -5 -6 -8c-24 -29 -53 -14 -66 16c-3 6 -3 11 1 15c21 29 44 54 80 65c7 2 14 2 17 2c24 0 42 -5 58 -17c13 -9 26 -18 39 -24
c24 -12 41 -8 59 13c22 24 45 21 59 -9z" />
    <glyph glyph-name="uni0304" unicode="&#x304;" horiz-adv-x="0" 
d="M-349 857c0 -27 -4 -36 -25 -40c-6 -1 -11 -1 -18 -1c-34 0 -70 1 -104 2c-22 1 -29 11 -27 37c0 21 8 29 29 30c19 0 39 1 58 0v-1c19 1 39 1 58 0c22 0 26 -6 29 -27z" />
    <glyph glyph-name="dieresis" unicode="&#xa8;" 
d="M487 858c-1 29 24 58 51 55c41 -3 64 -20 65 -59c0 -35 -21 -55 -56 -55s-59 24 -60 59zM387 854c-1 -31 -32 -59 -63 -59c-32 0 -58 27 -58 59c1 34 27 60 58 59c33 0 63 -30 63 -59z" />
    <glyph glyph-name="dotaccent" unicode="&#x2d9;" 
d="M387 858c-1 29 24 58 51 55c41 -3 64 -20 65 -59c0 -35 -21 -55 -56 -55s-59 24 -60 59z" />
    <glyph glyph-name="grave" unicode="`" 
d="M524 794c-19 -20 -28 -23 -46 -11c-5 4 -9 7 -13 12c-25 24 -49 50 -73 75c-14 16 -12 28 7 45c16 15 27 15 42 1c14 -14 28 -27 41 -41v-1c14 -13 28 -27 41 -41c15 -16 14 -23 1 -39z" />
    <glyph glyph-name="acute" unicode="&#xb4;" 
d="M511 917c20 -19 23 -28 11 -46c-4 -5 -7 -9 -12 -13c-24 -25 -50 -49 -75 -73c-16 -14 -28 -12 -45 7c-15 16 -15 27 -1 42c14 14 27 28 41 41h1c13 14 27 28 41 41c16 15 23 14 39 1z" />
    <glyph glyph-name="circumflex" unicode="&#x2c6;" 
d="M446 843c6 2 17 -23 26 -35c5 -8 11 -14 21 -14c8 0 27 -1 31 7c5 8 -2 13 -6 19c-17 26 -38 48 -53 76c-2 4 -6 9 -10 13c-6 7 -13 7 -21 0c-1 -3 -4 -5 -6 -8c-19 -27 -38 -55 -56 -84c-2 -2 -4 -6 -5 -9c-3 -6 -1 -10 4 -13c12 -5 38 -1 46 10l17 26c5 6 6 10 12 12z
" />
    <glyph glyph-name="caron" unicode="&#x2c7;" horiz-adv-x="600" 
d="M443 843c-6 -2 -17 23 -26 35c-5 8 -11 14 -21 14c-8 0 -27 1 -31 -7c-5 -8 2 -13 6 -19c17 -26 38 -48 53 -76c2 -4 6 -9 10 -13c6 -7 13 -7 21 0c1 3 4 5 6 8c19 27 38 55 56 84c2 2 4 6 5 9c3 6 1 10 -4 13c-12 5 -38 1 -46 -10l-17 -26c-5 -6 -6 -10 -12 -12z" />
    <glyph glyph-name="ring" unicode="&#x2da;" 
d="M376 858c-2 34 28 69 61 65c49 -3 76 -24 78 -70c0 -42 -26 -66 -68 -66c-41 0 -70 29 -71 71zM428 841c11 -10 23 -11 34 0c9 9 8 20 0 30c-12 10 -23 9 -36 -1c-7 -8 -6 -22 2 -29z" />
    <glyph glyph-name="tilde" unicode="&#x2dc;" 
d="M594 881c6 -11 2 -20 -6 -27c-16 -17 -33 -34 -55 -45c-31 -17 -63 -16 -93 4c-12 7 -22 14 -32 21c-20 13 -38 12 -55 -6c-2 -2 -4 -5 -6 -8c-24 -29 -53 -14 -66 16c-3 6 -3 11 1 15c21 29 44 54 80 65c7 2 14 2 17 2c24 0 42 -5 58 -17c13 -9 26 -18 39 -24
c24 -12 41 -8 59 13c22 24 45 21 59 -9z" />
    <glyph glyph-name="macron" unicode="&#xaf;" 
d="M545 857c0 -27 -4 -36 -25 -40c-6 -1 -11 -1 -18 -1c-34 0 -70 1 -104 2c-22 1 -29 11 -27 37c0 21 8 29 29 30c19 0 39 1 58 0v-1c19 1 39 1 58 0c22 0 26 -6 29 -27z" />
    <glyph glyph-name="LF" horiz-adv-x="0" 
 />
  </font>
</defs>
</svg>
